<?xml version="1.0" standalone="no"?>
<!DOCTYPE svg PUBLIC "-//W3C//DTD SVG 1.1//EN" "http://www.w3.org/Graphics/SVG/1.1/DTD/svg11.dtd">
<svg version="1.1" width="1200" height="534" onload="init(evt)" viewBox="0 0 1200 534" xmlns="http://www.w3.org/2000/svg" xmlns:xlink="http://www.w3.org/1999/xlink">
<!-- Flame graph stack visualization. See https://github.com/brendangregg/FlameGraph for latest version, and http://www.brendangregg.com/flamegraphs.html for examples. -->
<!-- NOTES:  -->
<defs>
	<linearGradient id="background" y1="0" y2="1" x1="0" x2="0" >
		<stop stop-color="#eeeeee" offset="5%" />
		<stop stop-color="#eeeeb0" offset="95%" />
	</linearGradient>
</defs>
<style type="text/css">
	text { font-family:Verdana; font-size:12px; fill:rgb(0,0,0); }
	#search, #ignorecase { opacity:0.1; cursor:pointer; }
	#search:hover, #search.show, #ignorecase:hover, #ignorecase.show { opacity:1; }
	#subtitle { text-anchor:middle; font-color:rgb(160,160,160); }
	#title { text-anchor:middle; font-size:17px}
	#unzoom { cursor:pointer; }
	#frames > *:hover { stroke:black; stroke-width:0.5; cursor:pointer; }
	.hide { display:none; }
	.parent { opacity:0.5; }
</style>
<script type="text/ecmascript">
<![CDATA[
	"use strict";
	var details, searchbtn, unzoombtn, matchedtxt, svg, searching, currentSearchTerm, ignorecase, ignorecaseBtn;
	function init(evt) {
		details = document.getElementById("details").firstChild;
		searchbtn = document.getElementById("search");
		ignorecaseBtn = document.getElementById("ignorecase");
		unzoombtn = document.getElementById("unzoom");
		matchedtxt = document.getElementById("matched");
		svg = document.getElementsByTagName("svg")[0];
		searching = 0;
		currentSearchTerm = null;

		// use GET parameters to restore a flamegraphs state.
		var params = get_params();
		if (params.x && params.y)
			zoom(find_group(document.querySelector('[x="' + params.x + '"][y="' + params.y + '"]')));
                if (params.s) search(params.s);
	}

	// event listeners
	window.addEventListener("click", function(e) {
		var target = find_group(e.target);
		if (target) {
			if (target.nodeName == "a") {
				if (e.ctrlKey === false) return;
				e.preventDefault();
			}
			if (target.classList.contains("parent")) unzoom(true);
			zoom(target);
			if (!document.querySelector('.parent')) {
				// we have basically done a clearzoom so clear the url
				var params = get_params();
				if (params.x) delete params.x;
				if (params.y) delete params.y;
				history.replaceState(null, null, parse_params(params));
				unzoombtn.classList.add("hide");
				return;
			}

			// set parameters for zoom state
			var el = target.querySelector("rect");
			if (el && el.attributes && el.attributes.y && el.attributes._orig_x) {
				var params = get_params()
				params.x = el.attributes._orig_x.value;
				params.y = el.attributes.y.value;
				history.replaceState(null, null, parse_params(params));
			}
		}
		else if (e.target.id == "unzoom") clearzoom();
		else if (e.target.id == "search") search_prompt();
		else if (e.target.id == "ignorecase") toggle_ignorecase();
	}, false)

	// mouse-over for info
	// show
	window.addEventListener("mouseover", function(e) {
		var target = find_group(e.target);
		if (target) details.nodeValue = "Function: " + g_to_text(target);
	}, false)

	// clear
	window.addEventListener("mouseout", function(e) {
		var target = find_group(e.target);
		if (target) details.nodeValue = ' ';
	}, false)

	// ctrl-F for search
	// ctrl-I to toggle case-sensitive search
	window.addEventListener("keydown",function (e) {
		if (e.keyCode === 114 || (e.ctrlKey && e.keyCode === 70)) {
			e.preventDefault();
			search_prompt();
		}
		else if (e.ctrlKey && e.keyCode === 73) {
			e.preventDefault();
			toggle_ignorecase();
		}
	}, false)

	// functions
	function get_params() {
		var params = {};
		var paramsarr = window.location.search.substr(1).split('&');
		for (var i = 0; i < paramsarr.length; ++i) {
			var tmp = paramsarr[i].split("=");
			if (!tmp[0] || !tmp[1]) continue;
			params[tmp[0]]  = decodeURIComponent(tmp[1]);
		}
		return params;
	}
	function parse_params(params) {
		var uri = "?";
		for (var key in params) {
			uri += key + '=' + encodeURIComponent(params[key]) + '&';
		}
		if (uri.slice(-1) == "&")
			uri = uri.substring(0, uri.length - 1);
		if (uri == '?')
			uri = window.location.href.split('?')[0];
		return uri;
	}
	function find_child(node, selector) {
		var children = node.querySelectorAll(selector);
		if (children.length) return children[0];
	}
	function find_group(node) {
		var parent = node.parentElement;
		if (!parent) return;
		if (parent.id == "frames") return node;
		return find_group(parent);
	}
	function orig_save(e, attr, val) {
		if (e.attributes["_orig_" + attr] != undefined) return;
		if (e.attributes[attr] == undefined) return;
		if (val == undefined) val = e.attributes[attr].value;
		e.setAttribute("_orig_" + attr, val);
	}
	function orig_load(e, attr) {
		if (e.attributes["_orig_"+attr] == undefined) return;
		e.attributes[attr].value = e.attributes["_orig_" + attr].value;
		e.removeAttribute("_orig_"+attr);
	}
	function g_to_text(e) {
		var text = find_child(e, "title").firstChild.nodeValue;
		return (text)
	}
	function g_to_func(e) {
		var func = g_to_text(e);
		// if there's any manipulation we want to do to the function
		// name before it's searched, do it here before returning.
		return (func);
	}
	function update_text(e) {
		var r = find_child(e, "rect");
		var t = find_child(e, "text");
		var w = parseFloat(r.attributes.width.value) -3;
		var txt = find_child(e, "title").textContent.replace(/\([^(]*\)$/,"");
		t.attributes.x.value = parseFloat(r.attributes.x.value) + 3;

		// Smaller than this size won't fit anything
		if (w < 2 * 12 * 0.59) {
			t.textContent = "";
			return;
		}

		t.textContent = txt;
		var sl = t.getSubStringLength(0, txt.length);
		// check if only whitespace or if we can fit the entire string into width w
		if (/^ *$/.test(txt) || sl < w)
			return;

		// this isn't perfect, but gives a good starting point
		// and avoids calling getSubStringLength too often
		var start = Math.floor((w/sl) * txt.length);
		for (var x = start; x > 0; x = x-2) {
			if (t.getSubStringLength(0, x + 2) <= w) {
				t.textContent = txt.substring(0, x) + "..";
				return;
			}
		}
		t.textContent = "";
	}

	// zoom
	function zoom_reset(e) {
		if (e.attributes != undefined) {
			orig_load(e, "x");
			orig_load(e, "width");
		}
		if (e.childNodes == undefined) return;
		for (var i = 0, c = e.childNodes; i < c.length; i++) {
			zoom_reset(c[i]);
		}
	}
	function zoom_child(e, x, ratio) {
		if (e.attributes != undefined) {
			if (e.attributes.x != undefined) {
				orig_save(e, "x");
				e.attributes.x.value = (parseFloat(e.attributes.x.value) - x - 10) * ratio + 10;
				if (e.tagName == "text")
					e.attributes.x.value = find_child(e.parentNode, "rect[x]").attributes.x.value + 3;
			}
			if (e.attributes.width != undefined) {
				orig_save(e, "width");
				e.attributes.width.value = parseFloat(e.attributes.width.value) * ratio;
			}
		}

		if (e.childNodes == undefined) return;
		for (var i = 0, c = e.childNodes; i < c.length; i++) {
			zoom_child(c[i], x - 10, ratio);
		}
	}
	function zoom_parent(e) {
		if (e.attributes) {
			if (e.attributes.x != undefined) {
				orig_save(e, "x");
				e.attributes.x.value = 10;
			}
			if (e.attributes.width != undefined) {
				orig_save(e, "width");
				e.attributes.width.value = parseInt(svg.width.baseVal.value) - (10 * 2);
			}
		}
		if (e.childNodes == undefined) return;
		for (var i = 0, c = e.childNodes; i < c.length; i++) {
			zoom_parent(c[i]);
		}
	}
	function zoom(node) {
		var attr = find_child(node, "rect").attributes;
		var width = parseFloat(attr.width.value);
		var xmin = parseFloat(attr.x.value);
		var xmax = parseFloat(xmin + width);
		var ymin = parseFloat(attr.y.value);
		var ratio = (svg.width.baseVal.value - 2 * 10) / width;

		// XXX: Workaround for JavaScript float issues (fix me)
		var fudge = 0.0001;

		unzoombtn.classList.remove("hide");

		var el = document.getElementById("frames").children;
		for (var i = 0; i < el.length; i++) {
			var e = el[i];
			var a = find_child(e, "rect").attributes;
			var ex = parseFloat(a.x.value);
			var ew = parseFloat(a.width.value);
			var upstack;
			// Is it an ancestor
			if (0 == 0) {
				upstack = parseFloat(a.y.value) > ymin;
			} else {
				upstack = parseFloat(a.y.value) < ymin;
			}
			if (upstack) {
				// Direct ancestor
				if (ex <= xmin && (ex+ew+fudge) >= xmax) {
					e.classList.add("parent");
					zoom_parent(e);
					update_text(e);
				}
				// not in current path
				else
					e.classList.add("hide");
			}
			// Children maybe
			else {
				// no common path
				if (ex < xmin || ex + fudge >= xmax) {
					e.classList.add("hide");
				}
				else {
					zoom_child(e, xmin, ratio);
					update_text(e);
				}
			}
		}
		search();
	}
	function unzoom(dont_update_text) {
		unzoombtn.classList.add("hide");
		var el = document.getElementById("frames").children;
		for(var i = 0; i < el.length; i++) {
			el[i].classList.remove("parent");
			el[i].classList.remove("hide");
			zoom_reset(el[i]);
			if(!dont_update_text) update_text(el[i]);
		}
		search();
	}
	function clearzoom() {
		unzoom();

		// remove zoom state
		var params = get_params();
		if (params.x) delete params.x;
		if (params.y) delete params.y;
		history.replaceState(null, null, parse_params(params));
	}

	// search
	function toggle_ignorecase() {
		ignorecase = !ignorecase;
		if (ignorecase) {
			ignorecaseBtn.classList.add("show");
		} else {
			ignorecaseBtn.classList.remove("show");
		}
		reset_search();
		search();
	}
	function reset_search() {
		var el = document.querySelectorAll("#frames rect");
		for (var i = 0; i < el.length; i++) {
			orig_load(el[i], "fill")
		}
		var params = get_params();
		delete params.s;
		history.replaceState(null, null, parse_params(params));
	}
	function search_prompt() {
		if (!searching) {
			var term = prompt("Enter a search term (regexp " +
			    "allowed, eg: ^ext4_)"
			    + (ignorecase ? ", ignoring case" : "")
			    + "\nPress Ctrl-i to toggle case sensitivity", "");
			if (term != null) search(term);
		} else {
			reset_search();
			searching = 0;
			currentSearchTerm = null;
			searchbtn.classList.remove("show");
			searchbtn.firstChild.nodeValue = "Search"
			matchedtxt.classList.add("hide");
			matchedtxt.firstChild.nodeValue = ""
		}
	}
	function search(term) {
		if (term) currentSearchTerm = term;
		if (currentSearchTerm === null) return;

		var re = new RegExp(currentSearchTerm, ignorecase ? 'i' : '');
		var el = document.getElementById("frames").children;
		var matches = new Object();
		var maxwidth = 0;
		for (var i = 0; i < el.length; i++) {
			var e = el[i];
			var func = g_to_func(e);
			var rect = find_child(e, "rect");
			if (func == null || rect == null)
				continue;

			// Save max width. Only works as we have a root frame
			var w = parseFloat(rect.attributes.width.value);
			if (w > maxwidth)
				maxwidth = w;

			if (func.match(re)) {
				// highlight
				var x = parseFloat(rect.attributes.x.value);
				orig_save(rect, "fill");
				rect.attributes.fill.value = "rgb(230,0,230)";

				// remember matches
				if (matches[x] == undefined) {
					matches[x] = w;
				} else {
					if (w > matches[x]) {
						// overwrite with parent
						matches[x] = w;
					}
				}
				searching = 1;
			}
		}
		if (!searching)
			return;
		var params = get_params();
		params.s = currentSearchTerm;
		history.replaceState(null, null, parse_params(params));

		searchbtn.classList.add("show");
		searchbtn.firstChild.nodeValue = "Reset Search";

		// calculate percent matched, excluding vertical overlap
		var count = 0;
		var lastx = -1;
		var lastw = 0;
		var keys = Array();
		for (k in matches) {
			if (matches.hasOwnProperty(k))
				keys.push(k);
		}
		// sort the matched frames by their x location
		// ascending, then width descending
		keys.sort(function(a, b){
			return a - b;
		});
		// Step through frames saving only the biggest bottom-up frames
		// thanks to the sort order. This relies on the tree property
		// where children are always smaller than their parents.
		var fudge = 0.0001;	// JavaScript floating point
		for (var k in keys) {
			var x = parseFloat(keys[k]);
			var w = matches[keys[k]];
			if (x >= lastx + lastw - fudge) {
				count += w;
				lastx = x;
				lastw = w;
			}
		}
		// display matched percent
		matchedtxt.classList.remove("hide");
		var pct = 100 * count / maxwidth;
		if (pct != 100) pct = pct.toFixed(1)
		matchedtxt.firstChild.nodeValue = "Matched: " + pct + "%";
	}
]]>
</script>
<rect x="0.0" y="0" width="1200.0" height="534.0" fill="url(#background)"  />
<text id="title" x="600.00" y="24" >Flame Graph</text>
<text id="details" x="10.00" y="517" > </text>
<text id="unzoom" x="10.00" y="24" class="hide">Reset Zoom</text>
<text id="search" x="1090.00" y="24" >Search</text>
<text id="ignorecase" x="1174.00" y="24" >ic</text>
<text id="matched" x="1090.00" y="517" > </text>
<g id="frames">
<g >
<title>kdispApplyAggressiveVblankHandlingWar_IMPL (110,386,038 samples, 0.24%)</title><rect x="10.0" y="101" width="2.8" height="15.0" fill="rgb(236,146,34)" rx="2" ry="2" />
<text  x="13.00" y="111.5" ></text>
</g>
<g >
<title>sched_tick (46,636,553 samples, 0.10%)</title><rect x="1170.3" y="261" width="1.2" height="15.0" fill="rgb(238,155,37)" rx="2" ry="2" />
<text  x="1173.26" y="271.5" ></text>
</g>
<g >
<title>_kgspRpcRecvPoll (44,157,604 samples, 0.10%)</title><rect x="17.1" y="165" width="1.1" height="15.0" fill="rgb(221,73,17)" rx="2" ry="2" />
<text  x="20.09" y="175.5" ></text>
</g>
<g >
<title>__libc_start_main@@GLIBC_2.34 (43,343,570,528 samples, 94.45%)</title><rect x="75.4" y="437" width="1114.6" height="15.0" fill="rgb(229,113,27)" rx="2" ry="2" />
<text  x="78.44" y="447.5" >__libc_start_main@@GLIBC_2.34</text>
</g>
<g >
<title>[unknown] (578,863,243 samples, 1.26%)</title><rect x="60.6" y="453" width="14.8" height="15.0" fill="rgb(210,24,5)" rx="2" ry="2" />
<text  x="63.55" y="463.5" ></text>
</g>
<g >
<title>x64_sys_call (319,873,302 samples, 0.70%)</title><rect x="10.0" y="389" width="8.2" height="15.0" fill="rgb(247,194,46)" rx="2" ry="2" />
<text  x="13.00" y="399.5" ></text>
</g>
<g >
<title>MinF32 (95,791,759 samples, 0.21%)</title><rect x="1129.3" y="341" width="2.4" height="15.0" fill="rgb(222,81,19)" rx="2" ry="2" />
<text  x="1132.28" y="351.5" ></text>
</g>
<g >
<title>resservResourceFactory (9,532,860 samples, 0.02%)</title><rect x="14.0" y="213" width="0.3" height="15.0" fill="rgb(208,16,4)" rx="2" ry="2" />
<text  x="17.03" y="223.5" ></text>
</g>
<g >
<title>RayBoxItersect (963,432,971 samples, 2.10%)</title><rect x="1107.0" y="357" width="24.7" height="15.0" fill="rgb(212,36,8)" rx="2" ry="2" />
<text  x="1109.97" y="367.5" >R..</text>
</g>
<g >
<title>MinF32 (384,915,801 samples, 0.84%)</title><rect x="1159.1" y="341" width="9.9" height="15.0" fill="rgb(222,81,19)" rx="2" ry="2" />
<text  x="1162.09" y="351.5" ></text>
</g>
<g >
<title>__memset_avx2_unaligned_erms (530,561,012 samples, 1.16%)</title><rect x="1172.7" y="389" width="13.6" height="15.0" fill="rgb(223,84,20)" rx="2" ry="2" />
<text  x="1175.66" y="399.5" ></text>
</g>
<g >
<title>__x64_sys_close (47,708,623 samples, 0.10%)</title><rect x="122.3" y="293" width="1.2" height="15.0" fill="rgb(231,123,29)" rx="2" ry="2" />
<text  x="125.28" y="303.5" ></text>
</g>
<g >
<title>_kgspRpcRecvPoll (110,386,038 samples, 0.24%)</title><rect x="10.0" y="117" width="2.8" height="15.0" fill="rgb(221,73,17)" rx="2" ry="2" />
<text  x="13.00" y="127.5" ></text>
</g>
<g >
<title>rpcRmApiControl_GSP (50,138,867 samples, 0.11%)</title><rect x="14.3" y="101" width="1.3" height="15.0" fill="rgb(222,79,19)" rx="2" ry="2" />
<text  x="17.28" y="111.5" ></text>
</g>
<g >
<title>clock (48,545,224 samples, 0.11%)</title><rect x="1188.7" y="389" width="1.3" height="15.0" fill="rgb(228,108,25)" rx="2" ry="2" />
<text  x="1191.75" y="399.5" ></text>
</g>
<g >
<title>__x64_sys_ioctl (319,873,302 samples, 0.70%)</title><rect x="10.0" y="373" width="8.2" height="15.0" fill="rgb(249,204,49)" rx="2" ry="2" />
<text  x="13.00" y="383.5" ></text>
</g>
<g >
<title>hrtimer_interrupt (47,455,249 samples, 0.10%)</title><rect x="941.4" y="325" width="1.3" height="15.0" fill="rgb(228,109,26)" rx="2" ry="2" />
<text  x="944.43" y="335.5" ></text>
</g>
<g >
<title>kchangrpapiConstruct_IMPL (110,386,038 samples, 0.24%)</title><rect x="10.0" y="165" width="2.8" height="15.0" fill="rgb(245,188,44)" rx="2" ry="2" />
<text  x="13.00" y="175.5" ></text>
</g>
<g >
<title>kdispApplyAggressiveVblankHandlingWar_IMPL (5,684,149 samples, 0.01%)</title><rect x="15.6" y="133" width="0.1" height="15.0" fill="rgb(236,146,34)" rx="2" ry="2" />
<text  x="18.57" y="143.5" ></text>
</g>
<g >
<title>x64_sys_call (47,708,623 samples, 0.10%)</title><rect x="122.3" y="309" width="1.2" height="15.0" fill="rgb(247,194,46)" rx="2" ry="2" />
<text  x="125.28" y="319.5" ></text>
</g>
<g >
<title>kceGetDeviceCaps_IMPL (50,138,867 samples, 0.11%)</title><rect x="14.3" y="213" width="1.3" height="15.0" fill="rgb(229,112,26)" rx="2" ry="2" />
<text  x="17.28" y="223.5" ></text>
</g>
<g >
<title>_start (43,343,570,528 samples, 94.45%)</title><rect x="75.4" y="453" width="1114.6" height="15.0" fill="rgb(245,185,44)" rx="2" ry="2" />
<text  x="78.44" y="463.5" >_start</text>
</g>
<g >
<title>BuildRotMat3 (47,736,202 samples, 0.10%)</title><rect x="790.6" y="373" width="1.2" height="15.0" fill="rgb(210,25,6)" rx="2" ry="2" />
<text  x="793.59" y="383.5" ></text>
</g>
<g >
<title>[[vdso]] (48,545,224 samples, 0.11%)</title><rect x="1188.7" y="357" width="1.3" height="15.0" fill="rgb(218,60,14)" rx="2" ry="2" />
<text  x="1191.75" y="367.5" ></text>
</g>
<g >
<title>_rmapiRmControl (153,594,285 samples, 0.33%)</title><rect x="14.3" y="261" width="3.9" height="15.0" fill="rgb(236,143,34)" rx="2" ry="2" />
<text  x="17.28" y="271.5" ></text>
</g>
<g >
<title>__sysvec_apic_timer_interrupt (47,455,249 samples, 0.10%)</title><rect x="941.4" y="341" width="1.3" height="15.0" fill="rgb(242,173,41)" rx="2" ry="2" />
<text  x="944.43" y="351.5" ></text>
</g>
<g >
<title>kgspHealthCheck_TU102 (53,613,665 samples, 0.12%)</title><rect x="15.7" y="133" width="1.4" height="15.0" fill="rgb(234,136,32)" rx="2" ry="2" />
<text  x="18.71" y="143.5" ></text>
</g>
<g >
<title>__hrtimer_run_queues (47,455,249 samples, 0.10%)</title><rect x="941.4" y="309" width="1.3" height="15.0" fill="rgb(237,150,35)" rx="2" ry="2" />
<text  x="944.43" y="319.5" ></text>
</g>
<g >
<title>resservResourceFactory (110,386,038 samples, 0.24%)</title><rect x="10.0" y="213" width="2.8" height="15.0" fill="rgb(208,16,4)" rx="2" ry="2" />
<text  x="13.00" y="223.5" ></text>
</g>
<g >
<title>hrtimer_interrupt (46,636,553 samples, 0.10%)</title><rect x="1170.3" y="325" width="1.2" height="15.0" fill="rgb(228,109,26)" rx="2" ry="2" />
<text  x="1173.26" y="335.5" ></text>
</g>
<g >
<title>do_syscall_64 (319,873,302 samples, 0.70%)</title><rect x="10.0" y="405" width="8.2" height="15.0" fill="rgb(209,20,4)" rx="2" ry="2" />
<text  x="13.00" y="415.5" ></text>
</g>
<g >
<title>rmapiAllocWithSecInfoTls (156,719,893 samples, 0.34%)</title><rect x="10.0" y="293" width="4.0" height="15.0" fill="rgb(241,169,40)" rx="2" ry="2" />
<text  x="13.00" y="303.5" ></text>
</g>
<g >
<title>_nv04ControlWithSecInfo (153,594,285 samples, 0.33%)</title><rect x="14.3" y="309" width="3.9" height="15.0" fill="rgb(222,79,19)" rx="2" ry="2" />
<text  x="17.28" y="319.5" ></text>
</g>
<g >
<title>intrIsVectorPending_TU102 (110,386,038 samples, 0.24%)</title><rect x="10.0" y="69" width="2.8" height="15.0" fill="rgb(239,156,37)" rx="2" ry="2" />
<text  x="13.00" y="79.5" ></text>
</g>
<g >
<title>update_process_times (46,636,553 samples, 0.10%)</title><rect x="1170.3" y="277" width="1.2" height="15.0" fill="rgb(250,209,50)" rx="2" ry="2" />
<text  x="1173.26" y="287.5" ></text>
</g>
<g >
<title>__memset_avx2_unaligned_erms (485,447,182 samples, 1.06%)</title><rect x="75.4" y="405" width="12.5" height="15.0" fill="rgb(223,84,20)" rx="2" ry="2" />
<text  x="78.44" y="415.5" ></text>
</g>
<g >
<title>kchannelCtrlCmdBind_IMPL (5,684,149 samples, 0.01%)</title><rect x="15.6" y="213" width="0.1" height="15.0" fill="rgb(212,33,7)" rx="2" ry="2" />
<text  x="18.57" y="223.5" ></text>
</g>
<g >
<title>sched_balance_trigger (46,636,553 samples, 0.10%)</title><rect x="1170.3" y="245" width="1.2" height="15.0" fill="rgb(213,38,9)" rx="2" ry="2" />
<text  x="1173.26" y="255.5" ></text>
</g>
<g >
<title>LoadAlphabet (47,708,623 samples, 0.10%)</title><rect x="122.3" y="389" width="1.2" height="15.0" fill="rgb(208,16,3)" rx="2" ry="2" />
<text  x="125.28" y="399.5" ></text>
</g>
<g >
<title>BlurBuffer (93,585,722 samples, 0.20%)</title><rect x="1100.8" y="373" width="2.5" height="15.0" fill="rgb(208,15,3)" rx="2" ry="2" />
<text  x="1103.85" y="383.5" ></text>
</g>
<g >
<title>_issueRpcAndWait (44,157,604 samples, 0.10%)</title><rect x="17.1" y="181" width="1.1" height="15.0" fill="rgb(242,170,40)" rx="2" ry="2" />
<text  x="20.09" y="191.5" ></text>
</g>
<g >
<title>__sysvec_apic_timer_interrupt (46,636,553 samples, 0.10%)</title><rect x="1170.3" y="341" width="1.2" height="15.0" fill="rgb(242,173,41)" rx="2" ry="2" />
<text  x="1173.26" y="351.5" ></text>
</g>
<g >
<title>_issueRpcAndWait (5,684,149 samples, 0.01%)</title><rect x="15.6" y="165" width="0.1" height="15.0" fill="rgb(242,170,40)" rx="2" ry="2" />
<text  x="18.57" y="175.5" ></text>
</g>
<g >
<title>Float3_Dot (48,077,368 samples, 0.10%)</title><rect x="791.8" y="373" width="1.3" height="15.0" fill="rgb(221,77,18)" rx="2" ry="2" />
<text  x="794.82" y="383.5" ></text>
</g>
<g >
<title>ShadowPostProcess (8,897,763,154 samples, 19.39%)</title><rect x="942.7" y="389" width="228.8" height="15.0" fill="rgb(223,83,19)" rx="2" ry="2" />
<text  x="945.65" y="399.5" >ShadowPostProcess</text>
</g>
<g >
<title>RmIoctl (319,873,302 samples, 0.70%)</title><rect x="10.0" y="325" width="8.2" height="15.0" fill="rgb(254,227,54)" rx="2" ry="2" />
<text  x="13.00" y="335.5" ></text>
</g>
<g >
<title>osDevReadReg032 (5,684,149 samples, 0.01%)</title><rect x="15.6" y="69" width="0.1" height="15.0" fill="rgb(234,137,32)" rx="2" ry="2" />
<text  x="18.57" y="79.5" ></text>
</g>
<g >
<title>osDevReadReg032 (53,613,665 samples, 0.12%)</title><rect x="15.7" y="69" width="1.4" height="15.0" fill="rgb(234,137,32)" rx="2" ry="2" />
<text  x="18.71" y="79.5" ></text>
</g>
<g >
<title>RayBoxItersect (1,448,217,992 samples, 3.16%)</title><rect x="1131.7" y="357" width="37.3" height="15.0" fill="rgb(212,36,8)" rx="2" ry="2" />
<text  x="1134.74" y="367.5" >Ray..</text>
</g>
<g >
<title>kchannelBindToRunlist_IMPL (5,684,149 samples, 0.01%)</title><rect x="15.6" y="197" width="0.1" height="15.0" fill="rgb(237,149,35)" rx="2" ry="2" />
<text  x="18.57" y="207.5" ></text>
</g>
<g >
<title>fclose@@GLIBC_2.2.5 (47,708,623 samples, 0.10%)</title><rect x="122.3" y="373" width="1.2" height="15.0" fill="rgb(251,213,51)" rx="2" ry="2" />
<text  x="125.28" y="383.5" ></text>
</g>
<g >
<title>kperfBoostSet_IMPL (53,613,665 samples, 0.12%)</title><rect x="15.7" y="213" width="1.4" height="15.0" fill="rgb(219,68,16)" rx="2" ry="2" />
<text  x="18.71" y="223.5" ></text>
</g>
<g >
<title>__cosf_fma (47,612,458 samples, 0.10%)</title><rect x="939.0" y="373" width="1.2" height="15.0" fill="rgb(224,89,21)" rx="2" ry="2" />
<text  x="941.98" y="383.5" ></text>
</g>
<g >
<title>sysvec_apic_timer_interrupt (46,636,553 samples, 0.10%)</title><rect x="1170.3" y="357" width="1.2" height="15.0" fill="rgb(220,69,16)" rx="2" ry="2" />
<text  x="1173.26" y="367.5" ></text>
</g>
<g >
<title>serverAllocResource (156,719,893 samples, 0.34%)</title><rect x="10.0" y="261" width="4.0" height="15.0" fill="rgb(232,126,30)" rx="2" ry="2" />
<text  x="13.00" y="271.5" ></text>
</g>
<g >
<title>_clientAllocResourceHelper (110,386,038 samples, 0.24%)</title><rect x="10.0" y="229" width="2.8" height="15.0" fill="rgb(246,189,45)" rx="2" ry="2" />
<text  x="13.00" y="239.5" ></text>
</g>
<g >
<title>_kgspRpcRecvPoll (50,138,867 samples, 0.11%)</title><rect x="14.3" y="69" width="1.3" height="15.0" fill="rgb(221,73,17)" rx="2" ry="2" />
<text  x="17.28" y="79.5" ></text>
</g>
<g >
<title>Float3_Reflect4 (96,479,424 samples, 0.21%)</title><rect x="117.3" y="389" width="2.5" height="15.0" fill="rgb(211,30,7)" rx="2" ry="2" />
<text  x="120.34" y="399.5" ></text>
</g>
<g >
<title>ApplyRotMat3 (49,608,543 samples, 0.11%)</title><rect x="789.3" y="373" width="1.3" height="15.0" fill="rgb(218,61,14)" rx="2" ry="2" />
<text  x="792.32" y="383.5" ></text>
</g>
<g >
<title>_kgspRpcRecvPoll (46,333,855 samples, 0.10%)</title><rect x="12.8" y="197" width="1.2" height="15.0" fill="rgb(221,73,17)" rx="2" ry="2" />
<text  x="15.84" y="207.5" ></text>
</g>
<g >
<title>[libnvidia-glcore.so.580.126.09] (578,863,243 samples, 1.26%)</title><rect x="60.6" y="437" width="14.8" height="15.0" fill="rgb(235,139,33)" rx="2" ry="2" />
<text  x="63.55" y="447.5" ></text>
</g>
<g >
<title>all (45,888,571,849 samples, 100%)</title><rect x="10.0" y="485" width="1180.0" height="15.0" fill="rgb(213,39,9)" rx="2" ry="2" />
<text  x="13.00" y="495.5" ></text>
</g>
<g >
<title>RenderObject (31,855,399,139 samples, 69.42%)</title><rect x="123.5" y="389" width="819.2" height="15.0" fill="rgb(216,52,12)" rx="2" ry="2" />
<text  x="126.51" y="399.5" >RenderObject</text>
</g>
<g >
<title>nvlinkCtrlCmdBusGetNvlinkCaps (50,138,867 samples, 0.11%)</title><rect x="14.3" y="149" width="1.3" height="15.0" fill="rgb(208,16,3)" rx="2" ry="2" />
<text  x="17.28" y="159.5" ></text>
</g>
<g >
<title>_kgspRpcDrainEvents (53,613,665 samples, 0.12%)</title><rect x="15.7" y="149" width="1.4" height="15.0" fill="rgb(229,113,27)" rx="2" ry="2" />
<text  x="18.71" y="159.5" ></text>
</g>
<g >
<title>_kgspRpcRecvPoll (53,613,665 samples, 0.12%)</title><rect x="15.7" y="165" width="1.4" height="15.0" fill="rgb(221,73,17)" rx="2" ry="2" />
<text  x="18.71" y="175.5" ></text>
</g>
<g >
<title>[libnvidia-glcore.so.580.126.09] (47,530,432 samples, 0.10%)</title><rect x="74.2" y="405" width="1.2" height="15.0" fill="rgb(235,139,33)" rx="2" ry="2" />
<text  x="77.22" y="415.5" ></text>
</g>
<g >
<title>kmem_cache_free (47,708,623 samples, 0.10%)</title><rect x="122.3" y="245" width="1.2" height="15.0" fill="rgb(254,225,53)" rx="2" ry="2" />
<text  x="125.28" y="255.5" ></text>
</g>
<g >
<title>RayBoxItersect (49,445,462 samples, 0.11%)</title><rect x="1169.0" y="373" width="1.3" height="15.0" fill="rgb(212,36,8)" rx="2" ry="2" />
<text  x="1171.98" y="383.5" ></text>
</g>
<g >
<title>tick_nohz_handler (47,455,249 samples, 0.10%)</title><rect x="941.4" y="293" width="1.3" height="15.0" fill="rgb(248,200,48)" rx="2" ry="2" />
<text  x="944.43" y="303.5" ></text>
</g>
<g >
<title>Float3_Reflect4 (5,238,545,978 samples, 11.42%)</title><rect x="793.1" y="373" width="134.7" height="15.0" fill="rgb(211,30,7)" rx="2" ry="2" />
<text  x="796.06" y="383.5" >Float3_Reflect4</text>
</g>
<g >
<title>_regRead (110,386,038 samples, 0.24%)</title><rect x="10.0" y="53" width="2.8" height="15.0" fill="rgb(240,164,39)" rx="2" ry="2" />
<text  x="13.00" y="63.5" ></text>
</g>
<g >
<title>entry_SYSCALL_64_after_hwframe (47,708,623 samples, 0.10%)</title><rect x="122.3" y="341" width="1.2" height="15.0" fill="rgb(218,63,15)" rx="2" ry="2" />
<text  x="125.28" y="351.5" ></text>
</g>
<g >
<title>MaxF32 (48,333,758 samples, 0.11%)</title><rect x="1105.7" y="357" width="1.3" height="15.0" fill="rgb(209,21,5)" rx="2" ry="2" />
<text  x="1108.73" y="367.5" ></text>
</g>
<g >
<title>rmapiControlWithSecInfo (153,594,285 samples, 0.33%)</title><rect x="14.3" y="277" width="3.9" height="15.0" fill="rgb(235,142,34)" rx="2" ry="2" />
<text  x="17.28" y="287.5" ></text>
</g>
<g >
<title>timeoutCheck (50,138,867 samples, 0.11%)</title><rect x="14.3" y="53" width="1.3" height="15.0" fill="rgb(219,65,15)" rx="2" ry="2" />
<text  x="17.28" y="63.5" ></text>
</g>
<g >
<title>Nv04AllocWithAccessSecInfo (156,719,893 samples, 0.34%)</title><rect x="10.0" y="309" width="4.0" height="15.0" fill="rgb(244,182,43)" rx="2" ry="2" />
<text  x="13.00" y="319.5" ></text>
</g>
<g >
<title>__memmove_avx_unaligned_erms (46,973,177 samples, 0.10%)</title><rect x="1171.5" y="389" width="1.2" height="15.0" fill="rgb(205,0,0)" rx="2" ry="2" />
<text  x="1174.46" y="399.5" ></text>
</g>
<g >
<title>rpcRmApiControl_GSP (53,613,665 samples, 0.12%)</title><rect x="15.7" y="197" width="1.4" height="15.0" fill="rgb(222,79,19)" rx="2" ry="2" />
<text  x="18.71" y="207.5" ></text>
</g>
<g >
<title>rm_ioctl (319,873,302 samples, 0.70%)</title><rect x="10.0" y="341" width="8.2" height="15.0" fill="rgb(227,103,24)" rx="2" ry="2" />
<text  x="13.00" y="351.5" ></text>
</g>
<g >
<title>kceGetNvlinkCaps_IMPL (50,138,867 samples, 0.11%)</title><rect x="14.3" y="197" width="1.3" height="15.0" fill="rgb(209,22,5)" rx="2" ry="2" />
<text  x="17.28" y="207.5" ></text>
</g>
<g >
<title>IntersectBBoxColor (1,448,217,992 samples, 3.16%)</title><rect x="1131.7" y="373" width="37.3" height="15.0" fill="rgb(213,36,8)" rx="2" ry="2" />
<text  x="1134.74" y="383.5" >Int..</text>
</g>
<g >
<title>Float3_Sub (95,853,419 samples, 0.21%)</title><rect x="119.8" y="389" width="2.5" height="15.0" fill="rgb(252,218,52)" rx="2" ry="2" />
<text  x="122.82" y="399.5" ></text>
</g>
<g >
<title>rpcRmApiAlloc_GSP (110,386,038 samples, 0.24%)</title><rect x="10.0" y="149" width="2.8" height="15.0" fill="rgb(211,29,7)" rx="2" ry="2" />
<text  x="13.00" y="159.5" ></text>
</g>
<g >
<title>rpcRmApiControl_GSP (5,684,149 samples, 0.01%)</title><rect x="15.6" y="181" width="0.1" height="15.0" fill="rgb(222,79,19)" rx="2" ry="2" />
<text  x="18.57" y="191.5" ></text>
</g>
<g >
<title>rpcRmApiControl_GSP (44,157,604 samples, 0.10%)</title><rect x="17.1" y="197" width="1.1" height="15.0" fill="rgb(222,79,19)" rx="2" ry="2" />
<text  x="20.09" y="207.5" ></text>
</g>
<g >
<title>_regRead (5,684,149 samples, 0.01%)</title><rect x="15.6" y="85" width="0.1" height="15.0" fill="rgb(240,164,39)" rx="2" ry="2" />
<text  x="18.57" y="95.5" ></text>
</g>
<g >
<title>__hrtimer_run_queues (46,636,553 samples, 0.10%)</title><rect x="1170.3" y="309" width="1.2" height="15.0" fill="rgb(237,150,35)" rx="2" ry="2" />
<text  x="1173.26" y="319.5" ></text>
</g>
<g >
<title>BlendColors50 (1,143,877,817 samples, 2.49%)</title><rect x="87.9" y="389" width="29.4" height="15.0" fill="rgb(234,134,32)" rx="2" ry="2" />
<text  x="90.92" y="399.5" >Bl..</text>
</g>
<g >
<title>__nvoc_objCreateDynamic (110,386,038 samples, 0.24%)</title><rect x="10.0" y="197" width="2.8" height="15.0" fill="rgb(228,105,25)" rx="2" ry="2" />
<text  x="13.00" y="207.5" ></text>
</g>
<g >
<title>entry_SYSCALL_64 (48,545,224 samples, 0.11%)</title><rect x="1188.7" y="341" width="1.3" height="15.0" fill="rgb(239,156,37)" rx="2" ry="2" />
<text  x="1191.75" y="351.5" ></text>
</g>
<g >
<title>_issueRpcAndWait (110,386,038 samples, 0.24%)</title><rect x="10.0" y="133" width="2.8" height="15.0" fill="rgb(242,170,40)" rx="2" ry="2" />
<text  x="13.00" y="143.5" ></text>
</g>
<g >
<title>knvlinkExecGspRmRpc_IMPL (50,138,867 samples, 0.11%)</title><rect x="14.3" y="117" width="1.3" height="15.0" fill="rgb(216,54,12)" rx="2" ry="2" />
<text  x="17.28" y="127.5" ></text>
</g>
<g >
<title>serverControl (153,594,285 samples, 0.33%)</title><rect x="14.3" y="245" width="3.9" height="15.0" fill="rgb(219,67,16)" rx="2" ry="2" />
<text  x="17.28" y="255.5" ></text>
</g>
<g >
<title>IntersectAnyBBox (1,108,024,881 samples, 2.41%)</title><rect x="1103.3" y="373" width="28.4" height="15.0" fill="rgb(251,215,51)" rx="2" ry="2" />
<text  x="1106.25" y="383.5" >In..</text>
</g>
<g >
<title>tick_do_update_jiffies64 (47,455,249 samples, 0.10%)</title><rect x="941.4" y="277" width="1.3" height="15.0" fill="rgb(208,14,3)" rx="2" ry="2" />
<text  x="944.43" y="287.5" ></text>
</g>
<g >
<title>_issueRpcAndWait (53,613,665 samples, 0.12%)</title><rect x="15.7" y="181" width="1.4" height="15.0" fill="rgb(242,170,40)" rx="2" ry="2" />
<text  x="18.71" y="191.5" ></text>
</g>
<g >
<title>MinF (48,117,688 samples, 0.10%)</title><rect x="937.7" y="373" width="1.3" height="15.0" fill="rgb(225,92,22)" rx="2" ry="2" />
<text  x="940.74" y="383.5" ></text>
</g>
<g >
<title>crashcatEngineLoadWayfinder_IMPL (53,613,665 samples, 0.12%)</title><rect x="15.7" y="101" width="1.4" height="15.0" fill="rgb(243,178,42)" rx="2" ry="2" />
<text  x="18.71" y="111.5" ></text>
</g>
<g >
<title>_checkTimeout (50,138,867 samples, 0.11%)</title><rect x="14.3" y="37" width="1.3" height="15.0" fill="rgb(205,2,0)" rx="2" ry="2" />
<text  x="17.28" y="47.5" ></text>
</g>
<g >
<title>__int128 int::* (47,920,648 samples, 0.10%)</title><rect x="940.2" y="373" width="1.2" height="15.0" fill="rgb(231,119,28)" rx="2" ry="2" />
<text  x="943.20" y="383.5" ></text>
</g>
<g >
<title>__close_nocancel (47,708,623 samples, 0.10%)</title><rect x="122.3" y="357" width="1.2" height="15.0" fill="rgb(228,109,26)" rx="2" ry="2" />
<text  x="125.28" y="367.5" ></text>
</g>
<g >
<title>clientCopyResource_IMPL (9,532,860 samples, 0.02%)</title><rect x="14.0" y="245" width="0.3" height="15.0" fill="rgb(213,41,9)" rx="2" ry="2" />
<text  x="17.03" y="255.5" ></text>
</g>
<g >
<title>Float3_Sub (388,010,045 samples, 0.85%)</title><rect x="927.8" y="373" width="9.9" height="15.0" fill="rgb(252,218,52)" rx="2" ry="2" />
<text  x="930.76" y="383.5" ></text>
</g>
<g >
<title>do_syscall_64 (47,708,623 samples, 0.10%)</title><rect x="122.3" y="325" width="1.2" height="15.0" fill="rgb(209,20,4)" rx="2" ry="2" />
<text  x="125.28" y="335.5" ></text>
</g>
<g >
<title>main (45,888,503,146 samples, 100.00%)</title><rect x="10.0" y="469" width="1180.0" height="15.0" fill="rgb(243,179,42)" rx="2" ry="2" />
<text  x="13.00" y="479.5" >main</text>
</g>
<g >
<title>_issueRpcAndWait (46,333,855 samples, 0.10%)</title><rect x="12.8" y="213" width="1.2" height="15.0" fill="rgb(242,170,40)" rx="2" ry="2" />
<text  x="15.84" y="223.5" ></text>
</g>
<g >
<title>sysvec_apic_timer_interrupt (47,455,249 samples, 0.10%)</title><rect x="941.4" y="357" width="1.3" height="15.0" fill="rgb(220,69,16)" rx="2" ry="2" />
<text  x="944.43" y="367.5" ></text>
</g>
<g >
<title>__GI___ioctl (319,873,302 samples, 0.70%)</title><rect x="10.0" y="437" width="8.2" height="15.0" fill="rgb(232,128,30)" rx="2" ry="2" />
<text  x="13.00" y="447.5" ></text>
</g>
<g >
<title>Nv04DupObjectWithSecInfo (9,532,860 samples, 0.02%)</title><rect x="14.0" y="309" width="0.3" height="15.0" fill="rgb(215,48,11)" rx="2" ry="2" />
<text  x="17.03" y="319.5" ></text>
</g>
<g >
<title>_clientAllocResourceHelper (9,532,860 samples, 0.02%)</title><rect x="14.0" y="229" width="0.3" height="15.0" fill="rgb(246,189,45)" rx="2" ry="2" />
<text  x="17.03" y="239.5" ></text>
</g>
<g >
<title>__powf_fma (94,962,357 samples, 0.21%)</title><rect x="1186.3" y="389" width="2.4" height="15.0" fill="rgb(214,44,10)" rx="2" ry="2" />
<text  x="1189.31" y="399.5" ></text>
</g>
<g >
<title>clock_gettime@@GLIBC_2.17 (48,545,224 samples, 0.11%)</title><rect x="1188.7" y="373" width="1.3" height="15.0" fill="rgb(250,209,50)" rx="2" ry="2" />
<text  x="1191.75" y="383.5" ></text>
</g>
<g >
<title>asm_sysvec_apic_timer_interrupt (47,455,249 samples, 0.10%)</title><rect x="941.4" y="373" width="1.3" height="15.0" fill="rgb(232,127,30)" rx="2" ry="2" />
<text  x="944.43" y="383.5" ></text>
</g>
<g >
<title>intrGetPendingLowLatencyHwDisplayIntr_TU102 (110,386,038 samples, 0.24%)</title><rect x="10.0" y="85" width="2.8" height="15.0" fill="rgb(223,86,20)" rx="2" ry="2" />
<text  x="13.00" y="95.5" ></text>
</g>
<g >
<title>[unknown] (47,530,432 samples, 0.10%)</title><rect x="74.2" y="421" width="1.2" height="15.0" fill="rgb(210,24,5)" rx="2" ry="2" />
<text  x="77.22" y="431.5" ></text>
</g>
<g >
<title>serverAllocResourceUnderLock (156,719,893 samples, 0.34%)</title><rect x="10.0" y="245" width="4.0" height="15.0" fill="rgb(249,203,48)" rx="2" ry="2" />
<text  x="13.00" y="255.5" ></text>
</g>
<g >
<title>update_wall_time (47,455,249 samples, 0.10%)</title><rect x="941.4" y="261" width="1.3" height="15.0" fill="rgb(207,11,2)" rx="2" ry="2" />
<text  x="944.43" y="271.5" ></text>
</g>
<g >
<title>timeoutCheck (46,333,855 samples, 0.10%)</title><rect x="12.8" y="181" width="1.2" height="15.0" fill="rgb(219,65,15)" rx="2" ry="2" />
<text  x="15.84" y="191.5" ></text>
</g>
<g >
<title>kceIsCeNvlinkP2P_GP100 (50,138,867 samples, 0.11%)</title><rect x="14.3" y="181" width="1.3" height="15.0" fill="rgb(254,227,54)" rx="2" ry="2" />
<text  x="17.28" y="191.5" ></text>
</g>
<g >
<title>_regRead (53,613,665 samples, 0.12%)</title><rect x="15.7" y="85" width="1.4" height="15.0" fill="rgb(240,164,39)" rx="2" ry="2" />
<text  x="18.71" y="95.5" ></text>
</g>
<g >
<title>rmresControl_Prologue_IMPL (44,157,604 samples, 0.10%)</title><rect x="17.1" y="213" width="1.1" height="15.0" fill="rgb(217,57,13)" rx="2" ry="2" />
<text  x="20.09" y="223.5" ></text>
</g>
<g >
<title>asm_sysvec_apic_timer_interrupt (46,636,553 samples, 0.10%)</title><rect x="1170.3" y="373" width="1.2" height="15.0" fill="rgb(232,127,30)" rx="2" ry="2" />
<text  x="1173.26" y="383.5" ></text>
</g>
<g >
<title>[unknown]  (1,646,128,455 samples, 3.59%)</title><rect x="18.2" y="453" width="42.4" height="15.0" fill="rgb(253,223,53)" rx="2" ry="2" />
<text  x="21.23" y="463.5" >[un..</text>
</g>
<g >
<title>timeoutCheck (44,157,604 samples, 0.10%)</title><rect x="17.1" y="149" width="1.1" height="15.0" fill="rgb(219,65,15)" rx="2" ry="2" />
<text  x="20.09" y="159.5" ></text>
</g>
<g >
<title>rpcRmApiAlloc_GSP (46,333,855 samples, 0.10%)</title><rect x="12.8" y="229" width="1.2" height="15.0" fill="rgb(211,29,7)" rx="2" ry="2" />
<text  x="15.84" y="239.5" ></text>
</g>
<g >
<title>__timekeeping_advance (47,455,249 samples, 0.10%)</title><rect x="941.4" y="245" width="1.3" height="15.0" fill="rgb(250,208,49)" rx="2" ry="2" />
<text  x="944.43" y="255.5" ></text>
</g>
<g >
<title>[libnvidia-glcore.so.580.126.09] (319,873,302 samples, 0.70%)</title><rect x="10.0" y="453" width="8.2" height="15.0" fill="rgb(235,139,33)" rx="2" ry="2" />
<text  x="13.00" y="463.5" ></text>
</g>
<g >
<title>rmapiDupObjectWithSecInfoTls (9,532,860 samples, 0.02%)</title><rect x="14.0" y="293" width="0.3" height="15.0" fill="rgb(225,94,22)" rx="2" ry="2" />
<text  x="17.03" y="303.5" ></text>
</g>
<g >
<title>BlendColors50 (47,484,645 samples, 0.10%)</title><rect x="1099.6" y="373" width="1.2" height="15.0" fill="rgb(234,134,32)" rx="2" ry="2" />
<text  x="1102.62" y="383.5" ></text>
</g>
<g >
<title>crashcatEngineGetNextCrashReport_IMPL (53,613,665 samples, 0.12%)</title><rect x="15.7" y="117" width="1.4" height="15.0" fill="rgb(217,55,13)" rx="2" ry="2" />
<text  x="18.71" y="127.5" ></text>
</g>
<g >
<title>rmapiControlWithSecInfoTls (153,594,285 samples, 0.33%)</title><rect x="14.3" y="293" width="3.9" height="15.0" fill="rgb(252,219,52)" rx="2" ry="2" />
<text  x="17.28" y="303.5" ></text>
</g>
<g >
<title>entry_SYSCALL_64_after_hwframe (319,873,302 samples, 0.70%)</title><rect x="10.0" y="421" width="8.2" height="15.0" fill="rgb(218,63,15)" rx="2" ry="2" />
<text  x="13.00" y="431.5" ></text>
</g>
<g >
<title>main (42,858,123,346 samples, 93.40%)</title><rect x="87.9" y="405" width="1102.1" height="15.0" fill="rgb(243,179,42)" rx="2" ry="2" />
<text  x="90.92" y="415.5" >main</text>
</g>
<g >
<title>tick_nohz_handler (46,636,553 samples, 0.10%)</title><rect x="1170.3" y="293" width="1.2" height="15.0" fill="rgb(248,200,48)" rx="2" ry="2" />
<text  x="1173.26" y="303.5" ></text>
</g>
<g >
<title>__libc_start_call_main (43,343,570,528 samples, 94.45%)</title><rect x="75.4" y="421" width="1114.6" height="15.0" fill="rgb(210,26,6)" rx="2" ry="2" />
<text  x="78.44" y="431.5" >__libc_start_call_main</text>
</g>
<g >
<title>_issueRpcAndWait (50,138,867 samples, 0.11%)</title><rect x="14.3" y="85" width="1.3" height="15.0" fill="rgb(242,170,40)" rx="2" ry="2" />
<text  x="17.28" y="95.5" ></text>
</g>
<g >
<title>nvidia_unlocked_ioctl (319,873,302 samples, 0.70%)</title><rect x="10.0" y="357" width="8.2" height="15.0" fill="rgb(241,170,40)" rx="2" ry="2" />
<text  x="13.00" y="367.5" ></text>
</g>
<g >
<title>__fput (47,708,623 samples, 0.10%)</title><rect x="122.3" y="261" width="1.2" height="15.0" fill="rgb(248,200,47)" rx="2" ry="2" />
<text  x="125.28" y="271.5" ></text>
</g>
<g >
<title>_kgspRpcRecvPoll (5,684,149 samples, 0.01%)</title><rect x="15.6" y="149" width="0.1" height="15.0" fill="rgb(221,73,17)" rx="2" ry="2" />
<text  x="18.57" y="159.5" ></text>
</g>
<g >
<title>_checkTimeout (46,333,855 samples, 0.10%)</title><rect x="12.8" y="165" width="1.2" height="15.0" fill="rgb(205,2,0)" rx="2" ry="2" />
<text  x="15.84" y="175.5" ></text>
</g>
<g >
<title>__nvoc_objCreate_KernelChannelGroupApi (110,386,038 samples, 0.24%)</title><rect x="10.0" y="181" width="2.8" height="15.0" fill="rgb(244,182,43)" rx="2" ry="2" />
<text  x="13.00" y="191.5" ></text>
</g>
<g >
<title>intrGetPendingLowLatencyHwDisplayIntr_TU102 (5,684,149 samples, 0.01%)</title><rect x="15.6" y="117" width="0.1" height="15.0" fill="rgb(223,86,20)" rx="2" ry="2" />
<text  x="18.57" y="127.5" ></text>
</g>
<g >
<title>serverCopyResource (9,532,860 samples, 0.02%)</title><rect x="14.0" y="261" width="0.3" height="15.0" fill="rgb(249,203,48)" rx="2" ry="2" />
<text  x="17.03" y="271.5" ></text>
</g>
<g >
<title>resControl_IMPL (153,594,285 samples, 0.33%)</title><rect x="14.3" y="229" width="3.9" height="15.0" fill="rgb(230,116,27)" rx="2" ry="2" />
<text  x="17.28" y="239.5" ></text>
</g>
<g >
<title>intrIsVectorPending_TU102 (5,684,149 samples, 0.01%)</title><rect x="15.6" y="101" width="0.1" height="15.0" fill="rgb(239,156,37)" rx="2" ry="2" />
<text  x="18.57" y="111.5" ></text>
</g>
<g >
<title>os_get_monotonic_time_ns (46,333,855 samples, 0.10%)</title><rect x="12.8" y="149" width="1.2" height="15.0" fill="rgb(250,208,49)" rx="2" ry="2" />
<text  x="15.84" y="159.5" ></text>
</g>
<g >
<title>_checkTimeout (44,157,604 samples, 0.10%)</title><rect x="17.1" y="133" width="1.1" height="15.0" fill="rgb(205,2,0)" rx="2" ry="2" />
<text  x="20.09" y="143.5" ></text>
</g>
<g >
<title>rmapiAllocWithSecInfo (156,719,893 samples, 0.34%)</title><rect x="10.0" y="277" width="4.0" height="15.0" fill="rgb(225,92,22)" rx="2" ry="2" />
<text  x="13.00" y="287.5" ></text>
</g>
<g >
<title>srso_alias_safe_ret (46,636,553 samples, 0.10%)</title><rect x="1170.3" y="229" width="1.2" height="15.0" fill="rgb(242,170,40)" rx="2" ry="2" />
<text  x="1173.26" y="239.5" ></text>
</g>
<g >
<title>srso_alias_safe_ret (9,532,860 samples, 0.02%)</title><rect x="14.0" y="197" width="0.3" height="15.0" fill="rgb(242,170,40)" rx="2" ry="2" />
<text  x="17.03" y="207.5" ></text>
</g>
<g >
<title>osDevReadReg032 (110,386,038 samples, 0.24%)</title><rect x="10.0" y="37" width="2.8" height="15.0" fill="rgb(234,137,32)" rx="2" ry="2" />
<text  x="13.00" y="47.5" ></text>
</g>
<g >
<title>knvlinkSyncLinkMasksAndVbiosInfo_IMPL (50,138,867 samples, 0.11%)</title><rect x="14.3" y="133" width="1.3" height="15.0" fill="rgb(229,114,27)" rx="2" ry="2" />
<text  x="17.28" y="143.5" ></text>
</g>
<g >
<title>fput_close_sync (47,708,623 samples, 0.10%)</title><rect x="122.3" y="277" width="1.2" height="15.0" fill="rgb(224,89,21)" rx="2" ry="2" />
<text  x="125.28" y="287.5" ></text>
</g>
<g >
<title>rmapiDupObjectWithSecInfo (9,532,860 samples, 0.02%)</title><rect x="14.0" y="277" width="0.3" height="15.0" fill="rgb(208,17,4)" rx="2" ry="2" />
<text  x="17.03" y="287.5" ></text>
</g>
<g >
<title>kceGetCeFromNvlinkConfig_IMPL (50,138,867 samples, 0.11%)</title><rect x="14.3" y="165" width="1.3" height="15.0" fill="rgb(227,103,24)" rx="2" ry="2" />
<text  x="17.28" y="175.5" ></text>
</g>
</g>
</svg>
