<?xml version="1.0" standalone="no"?>
<!DOCTYPE svg PUBLIC "-//W3C//DTD SVG 1.1//EN" "http://www.w3.org/Graphics/SVG/1.1/DTD/svg11.dtd">
<svg version="1.1" width="1200" height="598" onload="init(evt)" viewBox="0 0 1200 598" xmlns="http://www.w3.org/2000/svg" xmlns:xlink="http://www.w3.org/1999/xlink">
<!-- Flame graph stack visualization. See https://github.com/brendangregg/FlameGraph for latest version, and http://www.brendangregg.com/flamegraphs.html for examples. -->
<!-- NOTES:  -->
<defs>
	<linearGradient id="background" y1="0" y2="1" x1="0" x2="0" >
		<stop stop-color="#eeeeee" offset="5%" />
		<stop stop-color="#eeeeb0" offset="95%" />
	</linearGradient>
</defs>
<style type="text/css">
	text { font-family:Verdana; font-size:12px; fill:rgb(0,0,0); }
	#search, #ignorecase { opacity:0.1; cursor:pointer; }
	#search:hover, #search.show, #ignorecase:hover, #ignorecase.show { opacity:1; }
	#subtitle { text-anchor:middle; font-color:rgb(160,160,160); }
	#title { text-anchor:middle; font-size:17px}
	#unzoom { cursor:pointer; }
	#frames > *:hover { stroke:black; stroke-width:0.5; cursor:pointer; }
	.hide { display:none; }
	.parent { opacity:0.5; }
</style>
<script type="text/ecmascript">
<![CDATA[
	"use strict";
	var details, searchbtn, unzoombtn, matchedtxt, svg, searching, currentSearchTerm, ignorecase, ignorecaseBtn;
	function init(evt) {
		details = document.getElementById("details").firstChild;
		searchbtn = document.getElementById("search");
		ignorecaseBtn = document.getElementById("ignorecase");
		unzoombtn = document.getElementById("unzoom");
		matchedtxt = document.getElementById("matched");
		svg = document.getElementsByTagName("svg")[0];
		searching = 0;
		currentSearchTerm = null;

		// use GET parameters to restore a flamegraphs state.
		var params = get_params();
		if (params.x && params.y)
			zoom(find_group(document.querySelector('[x="' + params.x + '"][y="' + params.y + '"]')));
                if (params.s) search(params.s);
	}

	// event listeners
	window.addEventListener("click", function(e) {
		var target = find_group(e.target);
		if (target) {
			if (target.nodeName == "a") {
				if (e.ctrlKey === false) return;
				e.preventDefault();
			}
			if (target.classList.contains("parent")) unzoom(true);
			zoom(target);
			if (!document.querySelector('.parent')) {
				// we have basically done a clearzoom so clear the url
				var params = get_params();
				if (params.x) delete params.x;
				if (params.y) delete params.y;
				history.replaceState(null, null, parse_params(params));
				unzoombtn.classList.add("hide");
				return;
			}

			// set parameters for zoom state
			var el = target.querySelector("rect");
			if (el && el.attributes && el.attributes.y && el.attributes._orig_x) {
				var params = get_params()
				params.x = el.attributes._orig_x.value;
				params.y = el.attributes.y.value;
				history.replaceState(null, null, parse_params(params));
			}
		}
		else if (e.target.id == "unzoom") clearzoom();
		else if (e.target.id == "search") search_prompt();
		else if (e.target.id == "ignorecase") toggle_ignorecase();
	}, false)

	// mouse-over for info
	// show
	window.addEventListener("mouseover", function(e) {
		var target = find_group(e.target);
		if (target) details.nodeValue = "Function: " + g_to_text(target);
	}, false)

	// clear
	window.addEventListener("mouseout", function(e) {
		var target = find_group(e.target);
		if (target) details.nodeValue = ' ';
	}, false)

	// ctrl-F for search
	// ctrl-I to toggle case-sensitive search
	window.addEventListener("keydown",function (e) {
		if (e.keyCode === 114 || (e.ctrlKey && e.keyCode === 70)) {
			e.preventDefault();
			search_prompt();
		}
		else if (e.ctrlKey && e.keyCode === 73) {
			e.preventDefault();
			toggle_ignorecase();
		}
	}, false)

	// functions
	function get_params() {
		var params = {};
		var paramsarr = window.location.search.substr(1).split('&');
		for (var i = 0; i < paramsarr.length; ++i) {
			var tmp = paramsarr[i].split("=");
			if (!tmp[0] || !tmp[1]) continue;
			params[tmp[0]]  = decodeURIComponent(tmp[1]);
		}
		return params;
	}
	function parse_params(params) {
		var uri = "?";
		for (var key in params) {
			uri += key + '=' + encodeURIComponent(params[key]) + '&';
		}
		if (uri.slice(-1) == "&")
			uri = uri.substring(0, uri.length - 1);
		if (uri == '?')
			uri = window.location.href.split('?')[0];
		return uri;
	}
	function find_child(node, selector) {
		var children = node.querySelectorAll(selector);
		if (children.length) return children[0];
	}
	function find_group(node) {
		var parent = node.parentElement;
		if (!parent) return;
		if (parent.id == "frames") return node;
		return find_group(parent);
	}
	function orig_save(e, attr, val) {
		if (e.attributes["_orig_" + attr] != undefined) return;
		if (e.attributes[attr] == undefined) return;
		if (val == undefined) val = e.attributes[attr].value;
		e.setAttribute("_orig_" + attr, val);
	}
	function orig_load(e, attr) {
		if (e.attributes["_orig_"+attr] == undefined) return;
		e.attributes[attr].value = e.attributes["_orig_" + attr].value;
		e.removeAttribute("_orig_"+attr);
	}
	function g_to_text(e) {
		var text = find_child(e, "title").firstChild.nodeValue;
		return (text)
	}
	function g_to_func(e) {
		var func = g_to_text(e);
		// if there's any manipulation we want to do to the function
		// name before it's searched, do it here before returning.
		return (func);
	}
	function update_text(e) {
		var r = find_child(e, "rect");
		var t = find_child(e, "text");
		var w = parseFloat(r.attributes.width.value) -3;
		var txt = find_child(e, "title").textContent.replace(/\([^(]*\)$/,"");
		t.attributes.x.value = parseFloat(r.attributes.x.value) + 3;

		// Smaller than this size won't fit anything
		if (w < 2 * 12 * 0.59) {
			t.textContent = "";
			return;
		}

		t.textContent = txt;
		var sl = t.getSubStringLength(0, txt.length);
		// check if only whitespace or if we can fit the entire string into width w
		if (/^ *$/.test(txt) || sl < w)
			return;

		// this isn't perfect, but gives a good starting point
		// and avoids calling getSubStringLength too often
		var start = Math.floor((w/sl) * txt.length);
		for (var x = start; x > 0; x = x-2) {
			if (t.getSubStringLength(0, x + 2) <= w) {
				t.textContent = txt.substring(0, x) + "..";
				return;
			}
		}
		t.textContent = "";
	}

	// zoom
	function zoom_reset(e) {
		if (e.attributes != undefined) {
			orig_load(e, "x");
			orig_load(e, "width");
		}
		if (e.childNodes == undefined) return;
		for (var i = 0, c = e.childNodes; i < c.length; i++) {
			zoom_reset(c[i]);
		}
	}
	function zoom_child(e, x, ratio) {
		if (e.attributes != undefined) {
			if (e.attributes.x != undefined) {
				orig_save(e, "x");
				e.attributes.x.value = (parseFloat(e.attributes.x.value) - x - 10) * ratio + 10;
				if (e.tagName == "text")
					e.attributes.x.value = find_child(e.parentNode, "rect[x]").attributes.x.value + 3;
			}
			if (e.attributes.width != undefined) {
				orig_save(e, "width");
				e.attributes.width.value = parseFloat(e.attributes.width.value) * ratio;
			}
		}

		if (e.childNodes == undefined) return;
		for (var i = 0, c = e.childNodes; i < c.length; i++) {
			zoom_child(c[i], x - 10, ratio);
		}
	}
	function zoom_parent(e) {
		if (e.attributes) {
			if (e.attributes.x != undefined) {
				orig_save(e, "x");
				e.attributes.x.value = 10;
			}
			if (e.attributes.width != undefined) {
				orig_save(e, "width");
				e.attributes.width.value = parseInt(svg.width.baseVal.value) - (10 * 2);
			}
		}
		if (e.childNodes == undefined) return;
		for (var i = 0, c = e.childNodes; i < c.length; i++) {
			zoom_parent(c[i]);
		}
	}
	function zoom(node) {
		var attr = find_child(node, "rect").attributes;
		var width = parseFloat(attr.width.value);
		var xmin = parseFloat(attr.x.value);
		var xmax = parseFloat(xmin + width);
		var ymin = parseFloat(attr.y.value);
		var ratio = (svg.width.baseVal.value - 2 * 10) / width;

		// XXX: Workaround for JavaScript float issues (fix me)
		var fudge = 0.0001;

		unzoombtn.classList.remove("hide");

		var el = document.getElementById("frames").children;
		for (var i = 0; i < el.length; i++) {
			var e = el[i];
			var a = find_child(e, "rect").attributes;
			var ex = parseFloat(a.x.value);
			var ew = parseFloat(a.width.value);
			var upstack;
			// Is it an ancestor
			if (0 == 0) {
				upstack = parseFloat(a.y.value) > ymin;
			} else {
				upstack = parseFloat(a.y.value) < ymin;
			}
			if (upstack) {
				// Direct ancestor
				if (ex <= xmin && (ex+ew+fudge) >= xmax) {
					e.classList.add("parent");
					zoom_parent(e);
					update_text(e);
				}
				// not in current path
				else
					e.classList.add("hide");
			}
			// Children maybe
			else {
				// no common path
				if (ex < xmin || ex + fudge >= xmax) {
					e.classList.add("hide");
				}
				else {
					zoom_child(e, xmin, ratio);
					update_text(e);
				}
			}
		}
		search();
	}
	function unzoom(dont_update_text) {
		unzoombtn.classList.add("hide");
		var el = document.getElementById("frames").children;
		for(var i = 0; i < el.length; i++) {
			el[i].classList.remove("parent");
			el[i].classList.remove("hide");
			zoom_reset(el[i]);
			if(!dont_update_text) update_text(el[i]);
		}
		search();
	}
	function clearzoom() {
		unzoom();

		// remove zoom state
		var params = get_params();
		if (params.x) delete params.x;
		if (params.y) delete params.y;
		history.replaceState(null, null, parse_params(params));
	}

	// search
	function toggle_ignorecase() {
		ignorecase = !ignorecase;
		if (ignorecase) {
			ignorecaseBtn.classList.add("show");
		} else {
			ignorecaseBtn.classList.remove("show");
		}
		reset_search();
		search();
	}
	function reset_search() {
		var el = document.querySelectorAll("#frames rect");
		for (var i = 0; i < el.length; i++) {
			orig_load(el[i], "fill")
		}
		var params = get_params();
		delete params.s;
		history.replaceState(null, null, parse_params(params));
	}
	function search_prompt() {
		if (!searching) {
			var term = prompt("Enter a search term (regexp " +
			    "allowed, eg: ^ext4_)"
			    + (ignorecase ? ", ignoring case" : "")
			    + "\nPress Ctrl-i to toggle case sensitivity", "");
			if (term != null) search(term);
		} else {
			reset_search();
			searching = 0;
			currentSearchTerm = null;
			searchbtn.classList.remove("show");
			searchbtn.firstChild.nodeValue = "Search"
			matchedtxt.classList.add("hide");
			matchedtxt.firstChild.nodeValue = ""
		}
	}
	function search(term) {
		if (term) currentSearchTerm = term;
		if (currentSearchTerm === null) return;

		var re = new RegExp(currentSearchTerm, ignorecase ? 'i' : '');
		var el = document.getElementById("frames").children;
		var matches = new Object();
		var maxwidth = 0;
		for (var i = 0; i < el.length; i++) {
			var e = el[i];
			var func = g_to_func(e);
			var rect = find_child(e, "rect");
			if (func == null || rect == null)
				continue;

			// Save max width. Only works as we have a root frame
			var w = parseFloat(rect.attributes.width.value);
			if (w > maxwidth)
				maxwidth = w;

			if (func.match(re)) {
				// highlight
				var x = parseFloat(rect.attributes.x.value);
				orig_save(rect, "fill");
				rect.attributes.fill.value = "rgb(230,0,230)";

				// remember matches
				if (matches[x] == undefined) {
					matches[x] = w;
				} else {
					if (w > matches[x]) {
						// overwrite with parent
						matches[x] = w;
					}
				}
				searching = 1;
			}
		}
		if (!searching)
			return;
		var params = get_params();
		params.s = currentSearchTerm;
		history.replaceState(null, null, parse_params(params));

		searchbtn.classList.add("show");
		searchbtn.firstChild.nodeValue = "Reset Search";

		// calculate percent matched, excluding vertical overlap
		var count = 0;
		var lastx = -1;
		var lastw = 0;
		var keys = Array();
		for (k in matches) {
			if (matches.hasOwnProperty(k))
				keys.push(k);
		}
		// sort the matched frames by their x location
		// ascending, then width descending
		keys.sort(function(a, b){
			return a - b;
		});
		// Step through frames saving only the biggest bottom-up frames
		// thanks to the sort order. This relies on the tree property
		// where children are always smaller than their parents.
		var fudge = 0.0001;	// JavaScript floating point
		for (var k in keys) {
			var x = parseFloat(keys[k]);
			var w = matches[keys[k]];
			if (x >= lastx + lastw - fudge) {
				count += w;
				lastx = x;
				lastw = w;
			}
		}
		// display matched percent
		matchedtxt.classList.remove("hide");
		var pct = 100 * count / maxwidth;
		if (pct != 100) pct = pct.toFixed(1)
		matchedtxt.firstChild.nodeValue = "Matched: " + pct + "%";
	}
]]>
</script>
<rect x="0.0" y="0" width="1200.0" height="598.0" fill="url(#background)"  />
<text id="title" x="600.00" y="24" >Flame Graph</text>
<text id="details" x="10.00" y="581" > </text>
<text id="unzoom" x="10.00" y="24" class="hide">Reset Zoom</text>
<text id="search" x="1090.00" y="24" >Search</text>
<text id="ignorecase" x="1174.00" y="24" >ic</text>
<text id="matched" x="1090.00" y="581" > </text>
<g id="frames">
<g >
<title>osDevReadReg032 (6,651,649 samples, 0.06%)</title><rect x="19.7" y="165" width="0.6" height="15.0" fill="rgb(234,137,32)" rx="2" ry="2" />
<text  x="22.69" y="175.5" ></text>
</g>
<g >
<title>MinF32 (94,346,483 samples, 0.78%)</title><rect x="1136.8" y="405" width="9.2" height="15.0" fill="rgb(222,81,19)" rx="2" ry="2" />
<text  x="1139.81" y="415.5" ></text>
</g>
<g >
<title>__x64_sys_poll (42,420,051 samples, 0.35%)</title><rect x="95.4" y="437" width="4.1" height="15.0" fill="rgb(245,186,44)" rx="2" ry="2" />
<text  x="98.38" y="447.5" ></text>
</g>
<g >
<title>kgmmuCheckPendingInvalidates_TU102 (45,963,576 samples, 0.38%)</title><rect x="21.7" y="197" width="4.5" height="15.0" fill="rgb(205,3,0)" rx="2" ry="2" />
<text  x="24.68" y="207.5" ></text>
</g>
<g >
<title>Float3_Reflect4 (1,341,871,494 samples, 11.12%)</title><rect x="825.3" y="437" width="131.2" height="15.0" fill="rgb(211,30,7)" rx="2" ry="2" />
<text  x="828.27" y="447.5" >Float3_Reflect4</text>
</g>
<g >
<title>nvidia_unlocked_ioctl (87,231,427 samples, 0.72%)</title><rect x="19.1" y="421" width="8.5" height="15.0" fill="rgb(241,170,40)" rx="2" ry="2" />
<text  x="22.09" y="431.5" ></text>
</g>
<g >
<title>__libc_start_main@@GLIBC_2.34 (11,085,383,765 samples, 91.85%)</title><rect x="104.1" y="501" width="1083.9" height="15.0" fill="rgb(229,113,27)" rx="2" ry="2" />
<text  x="107.09" y="511.5" >__libc_start_main@@GLIBC_2.34</text>
</g>
<g >
<title>rpcRmApiAlloc_GSP (14,514,105 samples, 0.12%)</title><rect x="19.7" y="293" width="1.4" height="15.0" fill="rgb(211,29,7)" rx="2" ry="2" />
<text  x="22.69" y="303.5" ></text>
</g>
<g >
<title>XcursorTryShapeBitmapCursor (9,305,043 samples, 0.08%)</title><rect x="1188.0" y="485" width="0.9" height="15.0" fill="rgb(216,50,12)" rx="2" ry="2" />
<text  x="1190.96" y="495.5" ></text>
</g>
<g >
<title>osDevReadReg032 (6,027,653 samples, 0.05%)</title><rect x="19.1" y="37" width="0.6" height="15.0" fill="rgb(234,137,32)" rx="2" ry="2" />
<text  x="22.10" y="47.5" ></text>
</g>
<g >
<title>rmapiLockAcquire (5,859,168 samples, 0.05%)</title><rect x="21.1" y="293" width="0.6" height="15.0" fill="rgb(243,177,42)" rx="2" ry="2" />
<text  x="24.11" y="303.5" ></text>
</g>
<g >
<title>_clientAllocResourceHelper (6,054,868 samples, 0.05%)</title><rect x="19.1" y="293" width="0.6" height="15.0" fill="rgb(246,189,45)" rx="2" ry="2" />
<text  x="22.10" y="303.5" ></text>
</g>
<g >
<title>rmapiUnmapWithSecInfoTls (45,963,576 samples, 0.38%)</title><rect x="21.7" y="357" width="4.5" height="15.0" fill="rgb(249,205,49)" rx="2" ry="2" />
<text  x="24.68" y="367.5" ></text>
</g>
<g >
<title>_kgspRpcRecvPoll (6,027,653 samples, 0.05%)</title><rect x="19.1" y="117" width="0.6" height="15.0" fill="rgb(221,73,17)" rx="2" ry="2" />
<text  x="22.10" y="127.5" ></text>
</g>
<g >
<title>asm_exc_page_fault (8,369,103 samples, 0.07%)</title><rect x="1183.6" y="437" width="0.9" height="15.0" fill="rgb(225,93,22)" rx="2" ry="2" />
<text  x="1186.64" y="447.5" ></text>
</g>
<g >
<title>exc_page_fault (11,449,815 samples, 0.09%)</title><rect x="1188.9" y="261" width="1.1" height="15.0" fill="rgb(212,35,8)" rx="2" ry="2" />
<text  x="1191.87" y="271.5" ></text>
</g>
<g >
<title>do_syscall_64 (87,231,715 samples, 0.72%)</title><rect x="19.1" y="469" width="8.5" height="15.0" fill="rgb(209,20,4)" rx="2" ry="2" />
<text  x="22.09" y="479.5" ></text>
</g>
<g >
<title>RmIoctl (87,182,298 samples, 0.72%)</title><rect x="19.1" y="389" width="8.5" height="15.0" fill="rgb(254,227,54)" rx="2" ry="2" />
<text  x="22.10" y="399.5" ></text>
</g>
<g >
<title>os_acquire_rwlock_write (5,859,168 samples, 0.05%)</title><rect x="21.1" y="261" width="0.6" height="15.0" fill="rgb(207,12,2)" rx="2" ry="2" />
<text  x="24.11" y="271.5" ></text>
</g>
<g >
<title>crashcatEngineLoadWayfinder_IMPL (6,651,649 samples, 0.06%)</title><rect x="19.7" y="197" width="0.6" height="15.0" fill="rgb(243,178,42)" rx="2" ry="2" />
<text  x="22.69" y="207.5" ></text>
</g>
<g >
<title>down_write (5,859,168 samples, 0.05%)</title><rect x="21.1" y="245" width="0.6" height="15.0" fill="rgb(222,79,18)" rx="2" ry="2" />
<text  x="24.11" y="255.5" ></text>
</g>
<g >
<title>threadStateGetCurrentUnchecked.part.0 (7,862,456 samples, 0.07%)</title><rect x="20.3" y="213" width="0.8" height="15.0" fill="rgb(239,159,38)" rx="2" ry="2" />
<text  x="23.34" y="223.5" ></text>
</g>
<g >
<title>__handle_mm_fault (11,449,815 samples, 0.09%)</title><rect x="1188.9" y="213" width="1.1" height="15.0" fill="rgb(207,9,2)" rx="2" ry="2" />
<text  x="1191.87" y="223.5" ></text>
</g>
<g >
<title>dl_open_worker_begin (11,449,815 samples, 0.09%)</title><rect x="1188.9" y="309" width="1.1" height="15.0" fill="rgb(233,129,31)" rx="2" ry="2" />
<text  x="1191.87" y="319.5" ></text>
</g>
<g >
<title>BlurColorBuffer (46,365,022 samples, 0.38%)</title><rect x="1106.5" y="437" width="4.6" height="15.0" fill="rgb(207,11,2)" rx="2" ry="2" />
<text  x="1109.54" y="447.5" ></text>
</g>
<g >
<title>_dl_relocate_object (11,449,815 samples, 0.09%)</title><rect x="1188.9" y="293" width="1.1" height="15.0" fill="rgb(231,120,28)" rx="2" ry="2" />
<text  x="1191.87" y="303.5" ></text>
</g>
<g >
<title>[libnvidia-glcore.so.580.126.09] (180,219,924 samples, 1.49%)</title><rect x="10.0" y="517" width="17.6" height="15.0" fill="rgb(235,139,33)" rx="2" ry="2" />
<text  x="13.00" y="527.5" ></text>
</g>
<g >
<title>gvaspaceConstruct__IMPL (6,054,004 samples, 0.05%)</title><rect x="19.1" y="197" width="0.6" height="15.0" fill="rgb(236,144,34)" rx="2" ry="2" />
<text  x="22.10" y="207.5" ></text>
</g>
<g >
<title>rmclientInterUnmap_IMPL (45,963,576 samples, 0.38%)</title><rect x="21.7" y="309" width="4.5" height="15.0" fill="rgb(220,70,16)" rx="2" ry="2" />
<text  x="24.68" y="319.5" ></text>
</g>
<g >
<title>rwsem_spin_on_owner (5,859,168 samples, 0.05%)</title><rect x="21.1" y="213" width="0.6" height="15.0" fill="rgb(249,205,49)" rx="2" ry="2" />
<text  x="24.11" y="223.5" ></text>
</g>
<g >
<title>__libc_start_call_main (11,085,383,765 samples, 91.85%)</title><rect x="104.1" y="485" width="1083.9" height="15.0" fill="rgb(210,26,6)" rx="2" ry="2" />
<text  x="107.09" y="495.5" >__libc_start_call_main</text>
</g>
<g >
<title>__memset_avx2_unaligned_erms (41,151,972 samples, 0.34%)</title><rect x="104.1" y="469" width="4.0" height="15.0" fill="rgb(223,84,20)" rx="2" ry="2" />
<text  x="107.09" y="479.5" ></text>
</g>
<g >
<title>serverInterUnmap (45,963,576 samples, 0.38%)</title><rect x="21.7" y="325" width="4.5" height="15.0" fill="rgb(246,190,45)" rx="2" ry="2" />
<text  x="24.68" y="335.5" ></text>
</g>
<g >
<title>[unknown] (93,015,752 samples, 0.77%)</title><rect x="86.3" y="501" width="9.1" height="15.0" fill="rgb(210,24,5)" rx="2" ry="2" />
<text  x="89.28" y="511.5" ></text>
</g>
<g >
<title>dmaFreeMapping_GM107 (45,963,576 samples, 0.38%)</title><rect x="21.7" y="261" width="4.5" height="15.0" fill="rgb(216,52,12)" rx="2" ry="2" />
<text  x="24.68" y="271.5" ></text>
</g>
<g >
<title>rmapiAllocWithSecInfoTls (26,456,535 samples, 0.22%)</title><rect x="19.1" y="357" width="2.6" height="15.0" fill="rgb(241,169,40)" rx="2" ry="2" />
<text  x="22.10" y="367.5" ></text>
</g>
<g >
<title>dlopen_doit (11,449,815 samples, 0.09%)</title><rect x="1188.9" y="389" width="1.1" height="15.0" fill="rgb(211,31,7)" rx="2" ry="2" />
<text  x="1191.87" y="399.5" ></text>
</g>
<g >
<title>entry_SYSCALL_64_after_hwframe (42,420,051 samples, 0.35%)</title><rect x="95.4" y="485" width="4.1" height="15.0" fill="rgb(218,63,15)" rx="2" ry="2" />
<text  x="98.38" y="495.5" ></text>
</g>
<g >
<title>[unknown] (269,522,743 samples, 2.23%)</title><rect x="77.7" y="517" width="26.4" height="15.0" fill="rgb(210,24,5)" rx="2" ry="2" />
<text  x="80.74" y="527.5" >[..</text>
</g>
<g >
<title>setup_pixel_format (11,449,815 samples, 0.09%)</title><rect x="1188.9" y="517" width="1.1" height="15.0" fill="rgb(242,172,41)" rx="2" ry="2" />
<text  x="1191.87" y="527.5" ></text>
</g>
<g >
<title>__x64_sys_ioctl (87,231,427 samples, 0.72%)</title><rect x="19.1" y="437" width="8.5" height="15.0" fill="rgb(249,204,49)" rx="2" ry="2" />
<text  x="22.09" y="447.5" ></text>
</g>
<g >
<title>gvaspaceCopyServerRmReservedPdesToServerRm_IMPL (6,027,653 samples, 0.05%)</title><rect x="19.1" y="165" width="0.6" height="15.0" fill="rgb(216,52,12)" rx="2" ry="2" />
<text  x="22.10" y="175.5" ></text>
</g>
<g >
<title>_regRead (6,027,653 samples, 0.05%)</title><rect x="19.1" y="53" width="0.6" height="15.0" fill="rgb(240,164,39)" rx="2" ry="2" />
<text  x="22.10" y="63.5" ></text>
</g>
<g >
<title>[libXcursor.so.1.0.2] (9,305,043 samples, 0.08%)</title><rect x="1188.0" y="421" width="0.9" height="15.0" fill="rgb(221,74,17)" rx="2" ry="2" />
<text  x="1190.96" y="431.5" ></text>
</g>
<g >
<title>do_syscall_64 (42,420,051 samples, 0.35%)</title><rect x="95.4" y="469" width="4.1" height="15.0" fill="rgb(209,20,4)" rx="2" ry="2" />
<text  x="98.38" y="479.5" ></text>
</g>
<g >
<title>entry_SYSCALL_64_after_hwframe (87,231,715 samples, 0.72%)</title><rect x="19.1" y="485" width="8.5" height="15.0" fill="rgb(218,63,15)" rx="2" ry="2" />
<text  x="22.09" y="495.5" ></text>
</g>
<g >
<title>__poll (42,420,051 samples, 0.35%)</title><rect x="95.4" y="501" width="4.1" height="15.0" fill="rgb(250,208,49)" rx="2" ry="2" />
<text  x="98.38" y="511.5" ></text>
</g>
<g >
<title>dl_open_worker (11,449,815 samples, 0.09%)</title><rect x="1188.9" y="341" width="1.1" height="15.0" fill="rgb(236,145,34)" rx="2" ry="2" />
<text  x="1191.87" y="351.5" ></text>
</g>
<g >
<title>[libnvidia-glcore.so.580.126.09] (44,051,263 samples, 0.37%)</title><rect x="91.1" y="485" width="4.3" height="15.0" fill="rgb(235,139,33)" rx="2" ry="2" />
<text  x="94.07" y="495.5" ></text>
</g>
<g >
<title>vaspaceapiConstruct_IMPL (6,054,436 samples, 0.05%)</title><rect x="19.1" y="229" width="0.6" height="15.0" fill="rgb(237,147,35)" rx="2" ry="2" />
<text  x="22.10" y="239.5" ></text>
</g>
<g >
<title>_kgspRpcRecvPoll (14,514,105 samples, 0.12%)</title><rect x="19.7" y="261" width="1.4" height="15.0" fill="rgb(221,73,17)" rx="2" ry="2" />
<text  x="22.69" y="271.5" ></text>
</g>
<g >
<title>_dl_catch_exception (11,449,815 samples, 0.09%)</title><rect x="1188.9" y="405" width="1.1" height="15.0" fill="rgb(253,223,53)" rx="2" ry="2" />
<text  x="1191.87" y="415.5" ></text>
</g>
<g >
<title>RenderObject (7,911,804,029 samples, 65.56%)</title><rect x="189.2" y="453" width="773.6" height="15.0" fill="rgb(216,52,12)" rx="2" ry="2" />
<text  x="192.22" y="463.5" >RenderObject</text>
</g>
<g >
<title>XcursorLibraryLoadCursor (9,305,043 samples, 0.08%)</title><rect x="1188.0" y="469" width="0.9" height="15.0" fill="rgb(231,122,29)" rx="2" ry="2" />
<text  x="1190.96" y="479.5" ></text>
</g>
<g >
<title>gpuGetByHandle (14,700,204 samples, 0.12%)</title><rect x="26.2" y="341" width="1.4" height="15.0" fill="rgb(252,216,51)" rx="2" ry="2" />
<text  x="29.18" y="351.5" ></text>
</g>
<g >
<title>main (12,068,541,301 samples, 100.00%)</title><rect x="10.0" y="533" width="1180.0" height="15.0" fill="rgb(243,179,42)" rx="2" ry="2" />
<text  x="13.00" y="543.5" >main</text>
</g>
<g >
<title>rwsem_down_write_slowpath (5,859,168 samples, 0.05%)</title><rect x="21.1" y="229" width="0.6" height="15.0" fill="rgb(242,173,41)" rx="2" ry="2" />
<text  x="24.11" y="239.5" ></text>
</g>
<g >
<title>_nv04ControlWithSecInfo (14,732,914 samples, 0.12%)</title><rect x="26.2" y="373" width="1.4" height="15.0" fill="rgb(222,79,19)" rx="2" ry="2" />
<text  x="29.18" y="383.5" ></text>
</g>
<g >
<title>dlopen@GLIBC_2.2.5 (11,449,815 samples, 0.09%)</title><rect x="1188.9" y="453" width="1.1" height="15.0" fill="rgb(226,97,23)" rx="2" ry="2" />
<text  x="1191.87" y="463.5" ></text>
</g>
<g >
<title>_issueRpcAndWait (14,514,105 samples, 0.12%)</title><rect x="19.7" y="277" width="1.4" height="15.0" fill="rgb(242,170,40)" rx="2" ry="2" />
<text  x="22.69" y="287.5" ></text>
</g>
<g >
<title>main (11,044,231,793 samples, 91.51%)</title><rect x="108.1" y="469" width="1079.9" height="15.0" fill="rgb(243,179,42)" rx="2" ry="2" />
<text  x="111.12" y="479.5" >main</text>
</g>
<g >
<title>do_user_addr_fault (11,449,815 samples, 0.09%)</title><rect x="1188.9" y="245" width="1.1" height="15.0" fill="rgb(228,108,25)" rx="2" ry="2" />
<text  x="1191.87" y="255.5" ></text>
</g>
<g >
<title>osDevReadReg032 (45,963,576 samples, 0.38%)</title><rect x="21.7" y="165" width="4.5" height="15.0" fill="rgb(234,137,32)" rx="2" ry="2" />
<text  x="24.68" y="175.5" ></text>
</g>
<g >
<title>gvaspaceReserveSplitVaSpace_IMPL (6,054,004 samples, 0.05%)</title><rect x="19.1" y="181" width="0.6" height="15.0" fill="rgb(209,22,5)" rx="2" ry="2" />
<text  x="22.10" y="191.5" ></text>
</g>
<g >
<title>gvaspaceInvalidateTlb_IMPL (45,963,576 samples, 0.38%)</title><rect x="21.7" y="229" width="4.5" height="15.0" fill="rgb(239,157,37)" rx="2" ry="2" />
<text  x="24.68" y="239.5" ></text>
</g>
<g >
<title>[libGLX.so.0.0.0] (11,449,815 samples, 0.09%)</title><rect x="1188.9" y="485" width="1.1" height="15.0" fill="rgb(219,64,15)" rx="2" ry="2" />
<text  x="1191.87" y="495.5" ></text>
</g>
<g >
<title>rpcRmApiControl_GSP (6,027,653 samples, 0.05%)</title><rect x="19.1" y="149" width="0.6" height="15.0" fill="rgb(222,79,19)" rx="2" ry="2" />
<text  x="22.10" y="159.5" ></text>
</g>
<g >
<title>kgspHealthCheck_TU102 (6,651,649 samples, 0.06%)</title><rect x="19.7" y="229" width="0.6" height="15.0" fill="rgb(234,136,32)" rx="2" ry="2" />
<text  x="22.69" y="239.5" ></text>
</g>
<g >
<title>RmDeprecatedGetControlHandler (14,700,204 samples, 0.12%)</title><rect x="26.2" y="357" width="1.4" height="15.0" fill="rgb(205,2,0)" rx="2" ry="2" />
<text  x="29.18" y="367.5" ></text>
</g>
<g >
<title>__memset_avx2_unaligned_erms (92,898,807 samples, 0.77%)</title><rect x="1175.4" y="453" width="9.1" height="15.0" fill="rgb(223,84,20)" rx="2" ry="2" />
<text  x="1178.37" y="463.5" ></text>
</g>
<g >
<title>serverTopLock_Prologue (5,859,168 samples, 0.05%)</title><rect x="21.1" y="309" width="0.6" height="15.0" fill="rgb(236,144,34)" rx="2" ry="2" />
<text  x="24.11" y="319.5" ></text>
</g>
<g >
<title>[unknown]  (512,623,851 samples, 4.25%)</title><rect x="27.6" y="517" width="50.1" height="15.0" fill="rgb(253,223,53)" rx="2" ry="2" />
<text  x="30.62" y="527.5" >[unkn..</text>
</g>
<g >
<title>[libGLX.so.0.0.0] (11,449,815 samples, 0.09%)</title><rect x="1188.9" y="469" width="1.1" height="15.0" fill="rgb(219,64,15)" rx="2" ry="2" />
<text  x="1191.87" y="479.5" ></text>
</g>
<g >
<title>_dlerror_run (11,449,815 samples, 0.09%)</title><rect x="1188.9" y="437" width="1.1" height="15.0" fill="rgb(210,27,6)" rx="2" ry="2" />
<text  x="1191.87" y="447.5" ></text>
</g>
<g >
<title>_dl_catch_exception (11,449,815 samples, 0.09%)</title><rect x="1188.9" y="325" width="1.1" height="15.0" fill="rgb(253,223,53)" rx="2" ry="2" />
<text  x="1191.87" y="335.5" ></text>
</g>
<g >
<title>handle_mm_fault (11,449,815 samples, 0.09%)</title><rect x="1188.9" y="229" width="1.1" height="15.0" fill="rgb(234,135,32)" rx="2" ry="2" />
<text  x="1191.87" y="239.5" ></text>
</g>
<g >
<title>XcursorLibraryLoadImages (9,305,043 samples, 0.08%)</title><rect x="1188.0" y="453" width="0.9" height="15.0" fill="rgb(239,160,38)" rx="2" ry="2" />
<text  x="1190.96" y="463.5" ></text>
</g>
<g >
<title>glXSwapBuffers (46,754,101 samples, 0.39%)</title><rect x="99.5" y="485" width="4.6" height="15.0" fill="rgb(245,185,44)" rx="2" ry="2" />
<text  x="102.52" y="495.5" ></text>
</g>
<g >
<title>__nvoc_objCreate_VaSpaceApi (6,054,436 samples, 0.05%)</title><rect x="19.1" y="245" width="0.6" height="15.0" fill="rgb(212,33,8)" rx="2" ry="2" />
<text  x="22.10" y="255.5" ></text>
</g>
<g >
<title>asm_exc_page_fault (11,449,815 samples, 0.09%)</title><rect x="1188.9" y="277" width="1.1" height="15.0" fill="rgb(225,93,22)" rx="2" ry="2" />
<text  x="1191.87" y="287.5" ></text>
</g>
<g >
<title>intrGetPendingLowLatencyHwDisplayIntr_TU102 (6,027,653 samples, 0.05%)</title><rect x="19.1" y="85" width="0.6" height="15.0" fill="rgb(223,86,20)" rx="2" ry="2" />
<text  x="22.10" y="95.5" ></text>
</g>
<g >
<title>RayBoxItersect (357,492,826 samples, 2.96%)</title><rect x="1111.1" y="421" width="34.9" height="15.0" fill="rgb(212,36,8)" rx="2" ry="2" />
<text  x="1114.08" y="431.5" >Ra..</text>
</g>
<g >
<title>[libGLX_nvidia.so.580.126.09] (48,964,489 samples, 0.41%)</title><rect x="86.3" y="485" width="4.8" height="15.0" fill="rgb(252,219,52)" rx="2" ry="2" />
<text  x="89.28" y="495.5" ></text>
</g>
<g >
<title>_IO_fgets (9,305,043 samples, 0.08%)</title><rect x="1188.0" y="405" width="0.9" height="15.0" fill="rgb(235,139,33)" rx="2" ry="2" />
<text  x="1190.96" y="415.5" ></text>
</g>
<g >
<title>kdispApplyAggressiveVblankHandlingWar_IMPL (6,027,653 samples, 0.05%)</title><rect x="19.1" y="101" width="0.6" height="15.0" fill="rgb(236,146,34)" rx="2" ry="2" />
<text  x="22.10" y="111.5" ></text>
</g>
<g >
<title>[libnvidia-glcore.so.580.126.09] (87,332,839 samples, 0.72%)</title><rect x="77.7" y="501" width="8.6" height="15.0" fill="rgb(235,139,33)" rx="2" ry="2" />
<text  x="80.74" y="511.5" ></text>
</g>
<g >
<title>Float3_Sub (64,662,705 samples, 0.54%)</title><rect x="956.5" y="437" width="6.3" height="15.0" fill="rgb(252,218,52)" rx="2" ry="2" />
<text  x="959.47" y="447.5" ></text>
</g>
<g >
<title>_dl_open (11,449,815 samples, 0.09%)</title><rect x="1188.9" y="373" width="1.1" height="15.0" fill="rgb(238,156,37)" rx="2" ry="2" />
<text  x="1191.87" y="383.5" ></text>
</g>
<g >
<title>[libXcursor.so.1.0.2] (9,305,043 samples, 0.08%)</title><rect x="1188.0" y="437" width="0.9" height="15.0" fill="rgb(221,74,17)" rx="2" ry="2" />
<text  x="1190.96" y="447.5" ></text>
</g>
<g >
<title>do_sys_poll (42,420,051 samples, 0.35%)</title><rect x="95.4" y="421" width="4.1" height="15.0" fill="rgb(219,68,16)" rx="2" ry="2" />
<text  x="98.38" y="431.5" ></text>
</g>
<g >
<title>threadStateYieldCpuIfNecessary (7,862,456 samples, 0.07%)</title><rect x="20.3" y="229" width="0.8" height="15.0" fill="rgb(246,189,45)" rx="2" ry="2" />
<text  x="23.34" y="239.5" ></text>
</g>
<g >
<title>intrIsVectorPending_TU102 (6,027,653 samples, 0.05%)</title><rect x="19.1" y="69" width="0.6" height="15.0" fill="rgb(239,156,37)" rx="2" ry="2" />
<text  x="22.10" y="79.5" ></text>
</g>
<g >
<title>BlendColors50 (787,833,753 samples, 6.53%)</title><rect x="112.2" y="453" width="77.0" height="15.0" fill="rgb(234,134,32)" rx="2" ry="2" />
<text  x="115.19" y="463.5" >BlendCol..</text>
</g>
<g >
<title>_regRead (6,651,649 samples, 0.06%)</title><rect x="19.7" y="181" width="0.6" height="15.0" fill="rgb(240,164,39)" rx="2" ry="2" />
<text  x="22.69" y="191.5" ></text>
</g>
<g >
<title>Nv04AllocWithAccessSecInfo (26,456,535 samples, 0.22%)</title><rect x="19.1" y="373" width="2.6" height="15.0" fill="rgb(244,182,43)" rx="2" ry="2" />
<text  x="22.10" y="383.5" ></text>
</g>
<g >
<title>x64_sys_call (42,420,051 samples, 0.35%)</title><rect x="95.4" y="453" width="4.1" height="15.0" fill="rgb(247,194,46)" rx="2" ry="2" />
<text  x="98.38" y="463.5" ></text>
</g>
<g >
<title>all (12,068,603,022 samples, 100%)</title><rect x="10.0" y="549" width="1180.0" height="15.0" fill="rgb(213,39,9)" rx="2" ry="2" />
<text  x="13.00" y="559.5" ></text>
</g>
<g >
<title>[libGLX.so.0.0.0] (46,754,101 samples, 0.39%)</title><rect x="99.5" y="469" width="4.6" height="15.0" fill="rgb(219,64,15)" rx="2" ry="2" />
<text  x="102.52" y="479.5" ></text>
</g>
<g >
<title>ShadowPostProcess (2,174,224,308 samples, 18.02%)</title><rect x="962.8" y="453" width="212.6" height="15.0" fill="rgb(223,83,19)" rx="2" ry="2" />
<text  x="965.79" y="463.5" >ShadowPostProcess</text>
</g>
<g >
<title>x64_sys_call (87,231,427 samples, 0.72%)</title><rect x="19.1" y="453" width="8.5" height="15.0" fill="rgb(247,194,46)" rx="2" ry="2" />
<text  x="22.09" y="463.5" ></text>
</g>
<g >
<title>__GI___ioctl (87,231,715 samples, 0.72%)</title><rect x="19.1" y="501" width="8.5" height="15.0" fill="rgb(232,128,30)" rx="2" ry="2" />
<text  x="22.09" y="511.5" ></text>
</g>
<g >
<title>IntersectAnyBBox (357,525,648 samples, 2.96%)</title><rect x="1111.1" y="437" width="34.9" height="15.0" fill="rgb(251,215,51)" rx="2" ry="2" />
<text  x="1114.07" y="447.5" >In..</text>
</g>
<g >
<title>redraw_GL (46,754,101 samples, 0.39%)</title><rect x="99.5" y="501" width="4.6" height="15.0" fill="rgb(233,131,31)" rx="2" ry="2" />
<text  x="102.52" y="511.5" ></text>
</g>
<g >
<title>__powf_fma (35,829,942 samples, 0.30%)</title><rect x="1184.5" y="453" width="3.5" height="15.0" fill="rgb(214,44,10)" rx="2" ry="2" />
<text  x="1187.46" y="463.5" ></text>
</g>
<g >
<title>resservResourceFactory (6,054,868 samples, 0.05%)</title><rect x="19.1" y="277" width="0.6" height="15.0" fill="rgb(208,16,4)" rx="2" ry="2" />
<text  x="22.10" y="287.5" ></text>
</g>
<g >
<title>crashcatEngineGetNextCrashReport_IMPL (6,651,649 samples, 0.06%)</title><rect x="19.7" y="213" width="0.6" height="15.0" fill="rgb(217,55,13)" rx="2" ry="2" />
<text  x="22.69" y="223.5" ></text>
</g>
<g >
<title>rmapiAllocWithSecInfo (26,456,535 samples, 0.22%)</title><rect x="19.1" y="341" width="2.6" height="15.0" fill="rgb(225,92,22)" rx="2" ry="2" />
<text  x="22.10" y="351.5" ></text>
</g>
<g >
<title>XCreatePixmapCursor (9,305,043 samples, 0.08%)</title><rect x="1188.0" y="501" width="0.9" height="15.0" fill="rgb(249,202,48)" rx="2" ry="2" />
<text  x="1190.96" y="511.5" ></text>
</g>
<g >
<title>_dl_catch_error (11,449,815 samples, 0.09%)</title><rect x="1188.9" y="421" width="1.1" height="15.0" fill="rgb(223,83,20)" rx="2" ry="2" />
<text  x="1191.87" y="431.5" ></text>
</g>
<g >
<title>portSyncRwLockAcquireWrite (5,859,168 samples, 0.05%)</title><rect x="21.1" y="277" width="0.6" height="15.0" fill="rgb(241,166,39)" rx="2" ry="2" />
<text  x="24.11" y="287.5" ></text>
</g>
<g >
<title>kgmmuInvalidateTlb_GM107 (45,963,576 samples, 0.38%)</title><rect x="21.7" y="213" width="4.5" height="15.0" fill="rgb(246,190,45)" rx="2" ry="2" />
<text  x="24.68" y="223.5" ></text>
</g>
<g >
<title>glXChooseVisual (11,449,815 samples, 0.09%)</title><rect x="1188.9" y="501" width="1.1" height="15.0" fill="rgb(241,166,39)" rx="2" ry="2" />
<text  x="1191.87" y="511.5" ></text>
</g>
<g >
<title>__nvoc_objCreateDynamic (6,054,436 samples, 0.05%)</title><rect x="19.1" y="261" width="0.6" height="15.0" fill="rgb(228,105,25)" rx="2" ry="2" />
<text  x="22.10" y="271.5" ></text>
</g>
<g >
<title>dmaFreeMap_IMPL (45,963,576 samples, 0.38%)</title><rect x="21.7" y="277" width="4.5" height="15.0" fill="rgb(205,1,0)" rx="2" ry="2" />
<text  x="24.68" y="287.5" ></text>
</g>
<g >
<title>RayBoxItersect (300,113,602 samples, 2.49%)</title><rect x="1146.0" y="421" width="29.4" height="15.0" fill="rgb(212,36,8)" rx="2" ry="2" />
<text  x="1149.03" y="431.5" >Ra..</text>
</g>
<g >
<title>_gvaspaceInternalFree.constprop.0 (45,963,576 samples, 0.38%)</title><rect x="21.7" y="245" width="4.5" height="15.0" fill="rgb(247,195,46)" rx="2" ry="2" />
<text  x="24.68" y="255.5" ></text>
</g>
<g >
<title>serverAllocResourceUnderLock (20,568,973 samples, 0.17%)</title><rect x="19.1" y="309" width="2.0" height="15.0" fill="rgb(249,203,48)" rx="2" ry="2" />
<text  x="22.10" y="319.5" ></text>
</g>
<g >
<title>[libGLX.so.0.0.0] (46,754,101 samples, 0.39%)</title><rect x="99.5" y="453" width="4.6" height="15.0" fill="rgb(219,64,15)" rx="2" ry="2" />
<text  x="102.52" y="463.5" ></text>
</g>
<g >
<title>Nv04UnmapMemoryDmaWithSecInfo (45,963,576 samples, 0.38%)</title><rect x="21.7" y="373" width="4.5" height="15.0" fill="rgb(230,117,28)" rx="2" ry="2" />
<text  x="24.68" y="383.5" ></text>
</g>
<g >
<title>_start (11,085,383,765 samples, 91.85%)</title><rect x="104.1" y="517" width="1083.9" height="15.0" fill="rgb(245,185,44)" rx="2" ry="2" />
<text  x="107.09" y="527.5" >_start</text>
</g>
<g >
<title>_dl_catch_exception (11,449,815 samples, 0.09%)</title><rect x="1188.9" y="357" width="1.1" height="15.0" fill="rgb(253,223,53)" rx="2" ry="2" />
<text  x="1191.87" y="367.5" ></text>
</g>
<g >
<title>serverAllocResource (26,456,535 samples, 0.22%)</title><rect x="19.1" y="325" width="2.6" height="15.0" fill="rgb(232,126,30)" rx="2" ry="2" />
<text  x="22.10" y="335.5" ></text>
</g>
<g >
<title>vmmCreateVaspace_IMPL (6,054,292 samples, 0.05%)</title><rect x="19.1" y="213" width="0.6" height="15.0" fill="rgb(235,139,33)" rx="2" ry="2" />
<text  x="22.10" y="223.5" ></text>
</g>
<g >
<title>rm_ioctl (87,182,298 samples, 0.72%)</title><rect x="19.1" y="405" width="8.5" height="15.0" fill="rgb(227,103,24)" rx="2" ry="2" />
<text  x="22.10" y="415.5" ></text>
</g>
<g >
<title>mapFind_IMPL (14,700,204 samples, 0.12%)</title><rect x="26.2" y="325" width="1.4" height="15.0" fill="rgb(231,123,29)" rx="2" ry="2" />
<text  x="29.18" y="335.5" ></text>
</g>
<g >
<title>IntersectBBoxColor (300,113,602 samples, 2.49%)</title><rect x="1146.0" y="437" width="29.4" height="15.0" fill="rgb(213,36,8)" rx="2" ry="2" />
<text  x="1149.03" y="447.5" >In..</text>
</g>
<g >
<title>create_blank_cursor (9,305,043 samples, 0.08%)</title><rect x="1188.0" y="517" width="0.9" height="15.0" fill="rgb(242,170,40)" rx="2" ry="2" />
<text  x="1190.96" y="527.5" ></text>
</g>
<g >
<title>_regRead (45,963,576 samples, 0.38%)</title><rect x="21.7" y="181" width="4.5" height="15.0" fill="rgb(240,164,39)" rx="2" ry="2" />
<text  x="24.68" y="191.5" ></text>
</g>
<g >
<title>virtmemUnmapFrom_IMPL (45,963,576 samples, 0.38%)</title><rect x="21.7" y="293" width="4.5" height="15.0" fill="rgb(212,33,8)" rx="2" ry="2" />
<text  x="24.68" y="303.5" ></text>
</g>
<g >
<title>EdgeFunction (47,574,762 samples, 0.39%)</title><rect x="820.6" y="437" width="4.7" height="15.0" fill="rgb(240,163,39)" rx="2" ry="2" />
<text  x="823.62" y="447.5" ></text>
</g>
<g >
<title>_kgspRpcDrainEvents (6,651,649 samples, 0.06%)</title><rect x="19.7" y="245" width="0.6" height="15.0" fill="rgb(229,113,27)" rx="2" ry="2" />
<text  x="22.69" y="255.5" ></text>
</g>
<g >
<title>timeoutCheck (7,862,456 samples, 0.07%)</title><rect x="20.3" y="245" width="0.8" height="15.0" fill="rgb(219,65,15)" rx="2" ry="2" />
<text  x="23.34" y="255.5" ></text>
</g>
<g >
<title>rmapiUnmapWithSecInfo (45,963,576 samples, 0.38%)</title><rect x="21.7" y="341" width="4.5" height="15.0" fill="rgb(232,128,30)" rx="2" ry="2" />
<text  x="24.68" y="351.5" ></text>
</g>
<g >
<title>_issueRpcAndWait (6,027,653 samples, 0.05%)</title><rect x="19.1" y="133" width="0.6" height="15.0" fill="rgb(242,170,40)" rx="2" ry="2" />
<text  x="22.10" y="143.5" ></text>
</g>
</g>
</svg>
